<svg width="24" height="22" viewBox="0 0 24 22" fill="none" xmlns="http://www.w3.org/2000/svg">
<path d="M2.2596 21.8749C1.62819 21.8749 1.09374 21.6561 0.656244 21.2186C0.218748 20.7811 0 20.2467 0 19.6153V6.63455C0 6.00315 0.218748 5.46869 0.656244 5.0312C1.09374 4.5937 1.62819 4.37495 2.2596 4.37495H7.5V2.2596C7.5 1.62819 7.71875 1.09374 8.15624 0.656244C8.59374 0.218748 9.12819 0 9.7596 0H13.9903C14.6217 0 15.1562 0.218748 15.5937 0.656244C16.0312 1.09374 16.2499 1.62819 16.2499 2.2596V4.37495H21.4903C22.1217 4.37495 22.6562 4.5937 23.0937 5.0312C23.5312 5.46869 23.7499 6.00315 23.7499 6.63455V19.6153C23.7499 20.2467 23.5312 20.7811 23.0937 21.2186C22.6562 21.6561 22.1217 21.8749 21.4903 21.8749H2.2596ZM2.2596 19.9999H21.4903C21.5865 19.9999 21.6746 19.9598 21.7548 19.8797C21.8349 19.7996 21.875 19.7114 21.875 19.6153V6.63455C21.875 6.53839 21.8349 6.45024 21.7548 6.37011C21.6746 6.28998 21.5865 6.24991 21.4903 6.24991H2.2596C2.16344 6.24991 2.07529 6.28998 1.99516 6.37011C1.91502 6.45024 1.87495 6.53839 1.87495 6.63455V19.6153C1.87495 19.7114 1.91502 19.7996 1.99516 19.8797C2.07529 19.9598 2.16344 19.9999 2.2596 19.9999ZM9.37495 4.37495H14.375V2.2596C14.375 2.16344 14.3349 2.07529 14.2548 1.99516C14.1746 1.91502 14.0865 1.87495 13.9903 1.87495H9.7596C9.66344 1.87495 9.57529 1.91502 9.49516 1.99516C9.41502 2.07529 9.37495 2.16344 9.37495 2.2596V4.37495ZM1.87495 19.9999C1.87495 19.9999 1.87495 19.9598 1.87495 19.8797C1.87495 19.7996 1.87495 19.7114 1.87495 19.6153V6.63455C1.87495 6.53839 1.87495 6.45024 1.87495 6.37011C1.87495 6.28998 1.87495 6.24991 1.87495 6.24991C1.87495 6.24991 1.87495 6.28998 1.87495 6.37011C1.87495 6.45024 1.87495 6.53839 1.87495 6.63455V19.6153C1.87495 19.7114 1.87495 19.7996 1.87495 19.8797C1.87495 19.9598 1.87495 19.9999 1.87495 19.9999Z" fill="#00BFFF"/>
</svg>
