<svg width="22" height="25" viewBox="0 0 22 25" fill="none" xmlns="http://www.w3.org/2000/svg">
<path d="M10.625 24.6153V22.7403H18.9903C19.1025 22.7403 19.1947 22.7043 19.2668 22.6321C19.3389 22.56 19.375 22.4679 19.375 22.3557V21.2499H14.9519V12.4038H19.375V10.625C19.375 8.20829 18.5208 6.14579 16.8125 4.43745C15.1041 2.72912 13.0416 1.87495 10.625 1.87495C8.20829 1.87495 6.14579 2.72912 4.43745 4.43745C2.72912 6.14579 1.87495 8.20829 1.87495 10.625V12.4038H6.29799V21.2499H2.2596C1.62819 21.2499 1.09374 21.0312 0.656244 20.5937C0.218748 20.1562 0 19.6217 0 18.9903V10.625C0 9.16342 0.278845 7.78843 0.836535 6.49997C1.39422 5.21152 2.15544 4.08492 3.12018 3.12018C4.08492 2.15544 5.21152 1.39422 6.49997 0.836535C7.78843 0.278845 9.16342 0 10.625 0C12.0865 0 13.4615 0.278845 14.7499 0.836535C16.0384 1.39422 17.165 2.15544 18.1297 3.12018C19.0945 4.08492 19.8557 5.21152 20.4134 6.49997C20.9711 7.78843 21.2499 9.16342 21.2499 10.625V22.3557C21.2499 22.9871 21.0312 23.5215 20.5937 23.959C20.1562 24.3965 19.6217 24.6153 18.9903 24.6153H10.625ZM2.2596 19.375H4.42303V14.2788H1.87495V18.9903C1.87495 19.1025 1.91101 19.1947 1.98314 19.2668C2.05526 19.3389 2.14741 19.375 2.2596 19.375ZM16.8269 19.375H19.375V14.2788H16.8269V19.375ZM2.2596 14.2788C2.14741 14.2788 2.05526 14.2788 1.98314 14.2788C1.91101 14.2788 1.87495 14.2788 1.87495 14.2788H4.42303H2.2596ZM16.8269 14.2788H19.375H16.8269Z" fill="#DC2626"/>
</svg>
