<svg width="134" height="38" viewBox="0 0 134 38" fill="none" xmlns="http://www.w3.org/2000/svg">
<g clip-path="url(#clip0_2001_181)">
<rect width="134" height="38" fill="white"/>
<path d="M0 11.2494V20.0472L15.4058 12.9095V0L0 11.2494Z" fill="#CD2037"/>
<path d="M30.8046 11.2494V20.0472L15.4058 12.9095V0L30.8046 11.2494Z" fill="#941A3E"/>
<path d="M8.39249 20.9718V22.702H3.52386V24.7053H7.99249V26.3023H3.52386V28.5998H8.49591V30.33H1.49643V20.9718H8.39249Z" fill="#25215A"/>
<path d="M16.0678 26.7366C17.309 26.2533 17.8124 25.1255 17.8124 23.9768C17.8124 22.4568 16.9367 20.9718 14.6265 20.9718H10.4682V29.3984C10.4682 29.7416 10.8061 30.337 11.2888 30.337H12.4957V26.9818H13.93L15.7575 29.7276C15.9643 30.0357 16.5367 30.337 16.916 30.337H18.4676L16.0678 26.7366ZM12.4957 22.5759H14.0679C14.9989 22.5759 15.8471 22.786 15.8471 23.9768C15.8471 25.1676 14.992 25.3777 14.0679 25.3777H12.4957V22.5759Z" fill="#25215A"/>
<path d="M25.4602 20.9718H23.15L19.2744 30.337H20.826C21.3846 30.337 21.7363 29.8326 21.8466 29.5524L22.3501 28.2496H26.1842L26.9635 30.337H29.3081L25.4602 20.9718ZM22.9362 26.7156L24.274 23.2763H24.3016L25.5912 26.7156H22.9362Z" fill="#25215A"/>
<path d="M27.2876 21.7493C27.2876 21.9174 27.4118 21.9874 27.5635 21.9874C27.7359 21.9874 27.798 21.9034 27.798 21.8194C27.798 21.7353 27.7497 21.7002 27.7084 21.6792C27.6325 21.6512 27.5359 21.6302 27.3773 21.5882C27.1911 21.5392 27.1359 21.4201 27.1359 21.308C27.1359 21.0839 27.3359 20.9788 27.5359 20.9788C27.7635 20.9788 27.9566 21.1049 27.9566 21.3361H27.7635C27.7497 21.189 27.6601 21.1399 27.529 21.1399C27.4394 21.1399 27.329 21.1749 27.329 21.287C27.329 21.3641 27.3842 21.4061 27.4601 21.4341C27.4739 21.4411 27.7221 21.5041 27.7773 21.5182C27.9221 21.5602 27.9911 21.6863 27.9911 21.8053C27.9911 22.0575 27.7704 22.1556 27.5566 22.1556C27.3084 22.1556 27.1014 22.0365 27.0946 21.7563H27.2876V21.7493Z" fill="#25215A"/>
<path d="M28.1566 20.9998H28.4256L28.729 21.8754L29.0255 20.9998H29.2944V22.1205H29.1083V21.259L28.8048 22.1205H28.6462L28.3428 21.259V22.1205H28.1566V20.9998Z" fill="#25215A"/>
<path d="M3.42042 36.3469C3.42042 36.1438 3.35146 35.9616 3.22043 35.8355C3.05493 35.6675 2.82046 35.5834 2.53083 35.5834H1.49643V37.986H1.99294V37.1594H2.39981L3.00666 37.986H3.62041L2.9308 37.0543C3.24112 36.9353 3.42042 36.6831 3.42042 36.3469ZM1.99294 36.0667H2.51014C2.66186 36.0667 2.91701 36.1018 2.91701 36.3539V36.361C2.91701 36.5851 2.70323 36.6691 2.50325 36.6691H1.98605V36.0667H1.99294Z" fill="#25215A"/>
<path d="M4.88925 37.0124H6.03398V36.529H4.88925V36.0667H6.17191V35.5834H4.39273V37.979H6.1857V37.4957H4.88925V37.0124Z" fill="#25215A"/>
<path d="M7.95104 35.5694L6.87527 37.986H7.39938L7.64763 37.4186H8.62689L8.8751 37.986H9.41303L8.33725 35.5694H7.95104ZM7.8614 36.9353L8.14411 36.2978L8.42689 36.9353H7.8614Z" fill="#25215A"/>
<path d="M10.7164 35.5834H10.2199V37.979H11.9025V37.4957H10.7164V35.5834Z" fill="#25215A"/>
<path d="M14.7851 37.0124H15.9368V36.529H14.7851V36.0667H16.0678V35.5834H14.2886V37.979H16.0816V37.4957H14.7851V37.0124Z" fill="#25215A"/>
<path d="M17.9365 36.5361C17.4676 36.438 17.4676 36.3399 17.4676 36.2418C17.4676 36.1157 17.5986 36.0247 17.7848 36.0247C17.9779 36.0247 18.1365 36.0877 18.3089 36.2278L18.4124 36.3119L18.7089 35.9126L18.6124 35.8356C18.3641 35.6324 18.1089 35.5414 17.7917 35.5414C17.3228 35.5414 16.9711 35.8496 16.9711 36.2629C16.9711 36.7602 17.3572 36.9143 17.778 37.0053C18.2262 37.1034 18.2262 37.1945 18.2262 37.2855C18.2262 37.4257 18.0882 37.5167 17.8882 37.5167C17.6469 37.5167 17.4607 37.4396 17.2538 37.2505L17.1573 37.1594L16.84 37.5377L16.9297 37.6218C17.2125 37.881 17.5089 38 17.8744 38C18.371 38 18.7227 37.6988 18.7227 37.2575C18.7227 36.7742 18.302 36.6201 17.9365 36.5361Z" fill="#25215A"/>
<path d="M19.4744 36.0667H20.1778V37.979H20.6811V36.0667H21.3846V35.5834H19.4744V36.0667Z" fill="#25215A"/>
<path d="M22.8465 35.5694L21.7708 37.986H22.2949L22.5431 37.4186H23.5224L23.7707 37.986H24.3085L23.2397 35.5694H22.8465ZM22.7569 36.9353L23.0397 36.2978L23.3224 36.9353H22.7569Z" fill="#25215A"/>
<path d="M24.6947 36.0667H25.405V37.979H25.9015V36.0667H26.6118V35.5834H24.6947V36.0667Z" fill="#25215A"/>
<path d="M28.0117 37.4957V37.0124H29.1633V36.529H28.0117V36.0667H29.2943V35.5834H27.5151V37.979H29.3081V37.4957H28.0117Z" fill="#25215A"/>
<path d="M29.2943 32.0251H1.49643V34.0214H29.2943V32.0251Z" fill="#CD2037"/>
<path d="M50.8276 23.2033V24.8163H44.1491V16.1306H50.6674V17.7437H46.133V19.6297H50.1376V21.1931H46.133V23.2033H50.8276ZM57.9114 24.8163L56.248 22.3967H56.1494H54.412V24.8163H52.4159V16.1306H56.1494C56.9133 16.1306 57.5746 16.2588 58.1332 16.5153C58.7 16.7717 59.1353 17.1357 59.4393 17.6072C59.7432 18.0787 59.8952 18.6371 59.8952 19.2823C59.8952 19.9275 59.7391 20.4859 59.427 20.9574C59.123 21.4206 58.6877 21.7763 58.1209 22.0245L60.0554 24.8163H57.9114ZM57.8744 19.2823C57.8744 18.7943 57.7183 18.422 57.4062 18.1656C57.094 17.9009 56.6381 17.7685 56.0385 17.7685H54.412V20.7961H56.0385C56.6381 20.7961 57.094 20.6637 57.4062 20.399C57.7183 20.1343 57.8744 19.7621 57.8744 19.2823ZM67.1571 22.9551H63.1525L62.3885 24.8163H60.3431L64.1875 16.1306H66.159L70.0158 24.8163H67.921L67.1571 22.9551ZM66.5287 21.4289L65.161 18.1035L63.7932 21.4289H66.5287ZM82.6926 16.1306L78.9591 24.8163H76.9878L73.2666 16.1306H75.423L78.0473 22.3347L80.7088 16.1306H82.6926ZM83.4127 16.1306H85.4088V24.8163H83.4127V16.1306ZM94.1342 23.2033V24.8163H87.4558V16.1306H93.974V17.7437H89.4396V19.6297H93.4442V21.1931H89.4396V23.2033H94.1342ZM97.5096 17.7685H94.7495V16.1306H102.266V17.7685H99.5058V24.8163H97.5096V17.7685ZM111.25 16.1306V24.8163H109.611L105.311 19.5429V24.8163H103.339V16.1306H104.991L109.279 21.4041V16.1306H111.25ZM118.971 22.9551H114.967L114.203 24.8163H112.157L116.002 16.1306H117.973L121.83 24.8163H119.735L118.971 22.9551ZM118.343 21.4289L116.975 18.1035L115.607 21.4289H118.343ZM130.574 24.8163L130.561 19.6049L128.023 23.8981H127.124L124.598 19.7166V24.8163H122.725V16.1306H124.376L127.604 21.5282L130.783 16.1306H132.422L132.447 24.8163H130.574Z" fill="#25215A"/>
</g>
<defs>
<clipPath id="clip0_2001_181">
<rect width="134" height="38" fill="white"/>
</clipPath>
</defs>
</svg>
