<svg width="280" height="90" viewBox="0 0 280 90" fill="none" xmlns="http://www.w3.org/2000/svg">
<g clip-path="url(#clip0_2383_760)">
<path d="M0 52.4596V0H39.2763V10.2606H11.3792V20.9096H35.9269V31.1732H11.3792V42.1932H39.6504V52.4596H0Z" fill="#DA1F35"/>
<path d="M80.713 18.0619C80.713 22.4781 77.5173 25.4748 71.9321 25.4748H60.3325V10.4154H71.7146C77.294 10.4154 80.7159 12.9623 80.7159 17.913V18.0619H80.713ZM89.9897 46.7262L85.5616 40.2012L81.1624 33.7259C87.7858 31.2462 92.3184 25.9333 92.3184 17.4632V17.3113C92.3184 6.51911 84.9526 0 72.6744 0H48.872V47.7981C48.872 51.3263 51.7139 52.4596 55.2141 52.4596H60.3296V49.8368V42.3041V35.6682H69.3279L78.567 49.5651L78.7265 49.8046C79.8517 51.4081 81.7047 52.4596 83.7985 52.4596H93.8814L89.9897 46.7262Z" fill="#DA1F35"/>
<path d="M118.502 30.4576L125.371 13.561L132.241 30.4576H118.502ZM130.762 0H120.276L103.381 39.9938L99.6754 48.7619L98.1124 52.4596H105.435C108.068 52.4596 110.327 50.8473 111.292 48.5546L111.301 48.5341L114.445 40.7737H136.31L141.034 52.4596H152.929L130.762 0Z" fill="#DA1F35"/>
<path d="M215.306 62.3026C220.912 62.3026 226.517 62.3026 232.12 62.3026C232.981 62.3026 233.836 62.3289 234.686 62.4954C236.165 62.7875 237.487 63.3745 238.537 64.4961C238.903 64.8846 239.21 65.3139 239.454 65.7841C239.999 66.8356 240.341 67.9484 240.469 69.1313C240.573 70.1039 240.614 71.0795 240.614 72.0608C240.608 77.7066 240.611 83.3524 240.611 88.9983C240.611 90.0877 240.66 89.9972 239.622 89.9972C238.485 89.9972 237.345 90.0001 236.209 89.9942C235.791 89.9913 235.733 89.9241 235.716 89.5094C235.707 89.2874 235.713 89.0625 235.713 88.8376C235.713 83.3875 235.716 77.9374 235.71 72.4873C235.71 71.8447 235.669 71.2021 235.62 70.5625C235.565 69.8557 235.324 69.2014 234.967 68.591C234.506 67.8053 233.805 67.3205 232.949 67.081C232.445 66.9408 231.92 66.859 231.389 66.859C228.17 66.8619 224.951 66.8619 221.732 66.8619C221.593 66.8619 221.454 66.8677 221.318 66.8794C221.196 66.8911 221.109 66.97 221.103 67.0897C221.086 67.3672 221.077 67.6476 221.077 67.925C221.077 74.0732 221.077 80.2243 221.077 86.3725C221.077 87.2955 221.077 88.2184 221.077 89.1385C221.077 89.3342 221.074 89.5298 221.054 89.7226C221.039 89.8833 220.932 89.9621 220.778 89.9826C220.723 89.9884 220.668 89.9913 220.613 89.9913C219.282 89.9913 217.948 89.9972 216.617 89.9884C216.191 89.9855 216.156 89.9387 216.141 89.4948C216.135 89.2728 216.138 89.0479 216.138 88.823C216.138 81.8337 216.138 74.8472 216.138 67.8579C216.138 66.7421 216.234 66.8531 215.173 66.8531C210.956 66.8502 206.737 66.8502 202.52 66.8531C201.45 66.8531 201.514 66.7626 201.514 67.8316C201.514 74.8472 201.514 81.8629 201.514 88.8785C201.514 90.114 201.624 89.9855 200.386 89.9884C199.275 89.9913 198.168 89.9942 197.057 89.9855C196.637 89.9826 196.579 89.9154 196.561 89.5036C196.552 89.3079 196.558 89.1122 196.558 88.9165C196.558 80.3908 196.558 71.8651 196.558 63.3395C196.558 62.1799 196.468 62.2938 197.576 62.2938C203.486 62.2997 209.396 62.3026 215.306 62.3026Z" fill="#243876"/>
<path d="M58.2648 62.3025C62.3421 62.3025 66.4222 62.3025 70.4995 62.3025C71.5377 62.3025 71.442 62.2149 71.442 63.243C71.4449 64.2769 71.4478 65.3108 71.4391 66.3448C71.4362 66.8209 71.3985 66.8472 70.9055 66.8588C70.6851 66.8647 70.4618 66.8588 70.2385 66.8588C62.8583 66.8588 55.478 66.8588 48.0978 66.8559C47.541 66.8559 46.9929 66.8939 46.4448 67.002C44.9601 67.294 44.0466 68.1878 43.6232 69.6336C43.4086 70.3667 43.3593 71.1202 43.3564 71.8738C43.3419 74.6952 43.3419 77.5196 43.3564 80.341C43.3593 81.0917 43.4057 81.8452 43.6116 82.5812C44.0176 84.027 44.9108 84.9471 46.3839 85.2771C46.9581 85.4056 47.5352 85.4348 48.121 85.4348C55.4722 85.4319 62.8264 85.4319 70.1776 85.4348C70.5604 85.4348 71.0331 85.2771 71.3086 85.5224C71.6334 85.8087 71.4275 86.314 71.4362 86.7229C71.4594 87.6458 71.4478 88.5688 71.4391 89.4888C71.4362 89.9357 71.3869 89.9795 70.9751 89.9941C70.7808 89.9999 70.5865 89.997 70.3922 89.997C62.5683 89.997 54.7443 89.9941 46.9204 90C45.888 90 44.8673 89.9299 43.8668 89.6845C42.5474 89.3603 41.3758 88.7586 40.442 87.7364C39.6736 86.8952 39.2038 85.8934 38.8848 84.8098C38.5397 83.6473 38.4353 82.4498 38.4295 81.2465C38.415 77.8379 38.415 74.4265 38.4295 71.018C38.4353 69.8146 38.5426 68.6171 38.8906 67.4547C39.2241 66.3477 39.7113 65.3284 40.5145 64.4726C41.5498 63.3715 42.8489 62.799 44.2931 62.5069C45.1399 62.3346 45.9982 62.2966 46.8595 62.2966C50.6613 62.3054 54.4631 62.3025 58.2648 62.3025Z" fill="#243876"/>
<path d="M95.3865 62.323C95.5286 62.1886 95.6445 62.2996 95.7489 62.3756C96.5841 62.9743 97.4164 63.576 98.2487 64.1777C100.609 65.8863 102.973 67.592 105.333 69.3036C107.873 71.1437 110.411 72.9896 112.951 74.8296C113.986 75.5803 115.025 76.3221 116.06 77.0669C116.24 77.1954 116.417 77.3327 116.593 77.4671C116.759 77.5927 116.843 77.7591 116.831 77.9724C116.825 78.0833 116.831 78.1943 116.831 78.3082C116.831 81.8832 116.831 85.4553 116.831 89.0303C116.831 89.8511 116.802 89.8598 116.066 89.5239C113.493 88.3498 110.921 87.1786 108.349 86.0073C105.878 84.8799 103.408 83.7496 100.934 82.628C99.0896 81.7927 97.2424 80.9661 95.3981 80.1337C95.1052 79.8124 95.1458 79.4064 95.1458 79.0209C95.14 73.8307 95.14 68.6406 95.1429 63.4475C95.1429 63.0532 95.1313 62.6589 95.3865 62.323Z" fill="#90183A"/>
<path d="M95.3865 62.323C95.3952 62.5742 95.4155 62.8225 95.4155 63.0737C95.4184 68.5355 95.4155 73.9973 95.4155 79.462C95.4155 79.684 95.4039 79.9089 95.3981 80.1309C94.4817 80.6566 93.4928 81.0246 92.5388 81.4656C90.5987 82.3594 88.6471 83.2269 86.7042 84.1118C84.7351 85.0085 82.769 85.9139 80.8029 86.8106C78.8106 87.7219 76.8155 88.6273 74.8204 89.5357C74.6957 89.5941 74.5652 89.6467 74.4347 89.6905C74.2868 89.7401 74.1418 89.6525 74.1302 89.5065C74.1157 89.3108 74.1128 89.1151 74.1128 88.9194C74.1128 85.3999 74.1128 81.8775 74.1128 78.358C74.1128 78.3288 74.1157 78.3025 74.1128 78.2733C74.0432 77.8059 74.223 77.4759 74.6203 77.2247C75.064 76.9414 75.4844 76.6172 75.9107 76.3105C78.3206 74.5697 80.7304 72.829 83.1402 71.0882C86.2025 68.8743 89.2648 66.6633 92.3271 64.4493C93.1594 63.8477 93.9829 63.2314 94.8181 62.6297C94.9892 62.507 95.1371 62.3143 95.3865 62.323Z" fill="#DA1F35"/>
<path d="M239.201 62.4485C239.425 62.2615 239.596 62.3024 239.755 62.3024C241.446 62.2995 243.139 62.3112 244.83 62.2937C245.25 62.2878 245.555 62.4105 245.857 62.7172C249.577 66.4703 253.312 70.2089 257.041 73.9504C257.65 74.5608 258.251 75.18 258.857 75.7904C259.092 76.027 259.335 76.2548 259.582 76.4827C259.701 76.5907 259.837 76.582 259.956 76.4768C260.101 76.3483 260.246 76.2169 260.382 76.0796C262.775 73.6729 265.164 71.2662 267.554 68.8566C269.61 66.7828 271.666 64.7091 273.719 62.6325C273.925 62.4251 274.139 62.2937 274.444 62.2966C276.219 62.3053 277.993 62.3024 279.768 62.3083C279.846 62.3083 279.936 62.3083 279.997 62.4689C279.846 62.6412 279.681 62.8544 279.495 63.0443C275.224 67.3874 270.949 71.7277 266.675 76.0708C265.35 77.4173 264.033 78.7784 262.682 80.1015C262.305 80.4695 262.174 80.8463 262.18 81.3574C262.2 83.8722 262.189 86.3869 262.189 88.9017C262.189 90.1226 262.255 89.9941 261.125 89.997C260.014 89.9999 258.906 90.0028 257.795 89.9941C257.279 89.9911 257.244 89.9532 257.242 89.407C257.236 88.1218 257.239 86.8367 257.239 85.5516C257.239 84.0708 257.23 82.59 257.244 81.1091C257.247 80.7178 257.128 80.4344 256.847 80.154C255.42 78.7492 254.011 77.3268 252.599 75.9073C250.52 73.8189 248.44 71.7248 246.358 69.6393C244.273 67.551 242.185 65.4685 240.1 63.3831C239.81 63.0852 239.526 62.7814 239.201 62.4485Z" fill="#243876"/>
<path d="M35.4861 71.719C35.489 70.4251 35.3817 69.1487 35.1149 67.8899C34.851 66.6398 34.3261 65.5065 33.4707 64.5485C32.4412 63.4007 31.1188 62.8048 29.6428 62.5069C28.796 62.3346 27.9377 62.2966 27.0764 62.2966C18.6406 62.2996 10.2048 62.2996 1.76894 62.2996C1.54565 62.2996 1.32525 62.2937 1.10196 62.3054C0.838071 62.3171 0.762674 62.3872 0.759774 62.6646C0.753974 63.9235 0.751074 65.1794 0.756874 66.4383C0.759774 66.7654 0.838071 66.8384 1.13966 66.853C1.36005 66.8618 1.58335 66.8559 1.80664 66.8588C4.19326 66.8588 6.57988 66.8588 8.9665 66.8588C14.601 66.8588 20.2326 66.8618 25.8671 66.853C26.4819 66.853 27.088 66.8939 27.6825 67.037C28.6742 67.2765 29.4456 67.8256 29.9328 68.7486C30.1822 69.2217 30.3446 69.7183 30.4403 70.2469C30.5969 71.1056 30.5882 71.9702 30.5853 72.8376C30.5824 74.003 30.6694 73.8891 29.5732 73.892C21.9697 73.8949 14.3661 73.892 6.76257 73.8949C6.28989 73.8949 5.8172 73.892 5.34742 73.9212C4.39625 73.9796 3.47408 74.1958 2.62731 74.631C1.17446 75.3787 0.437885 76.6609 0.205892 78.2322C-0.115997 80.3994 0.0144989 82.5812 0.0840966 84.7601C0.0927963 85.0376 0.142095 85.3151 0.191393 85.5925C0.400186 86.8046 0.835171 87.9028 1.80954 88.7148C2.37502 89.1851 3.0159 89.5034 3.72057 89.6933C4.58474 89.9269 5.46341 90.0029 6.35658 90C10.9355 89.9941 15.5145 89.997 20.0934 89.997C24.8928 89.997 29.695 89.997 34.4943 89.997C35.547 89.997 35.4745 90.0876 35.4745 88.9952C35.4774 83.2384 35.4716 77.4787 35.4861 71.719ZM30.5853 78.6966C30.5853 80.7645 30.5853 82.8324 30.5853 84.9003C30.5853 85.1223 30.5795 85.3472 30.5708 85.5692C30.5621 85.7357 30.4519 85.8174 30.3011 85.8291C30.1068 85.8437 29.9125 85.8408 29.7182 85.8408C22.6163 85.8408 15.5145 85.8408 8.41261 85.8437C7.88483 85.8437 7.36285 85.8057 6.84667 85.6743C5.8868 85.4261 5.27782 84.7981 5.10383 83.8459C4.85443 82.4644 4.83994 81.0566 5.10963 79.678C5.30102 78.7054 5.9303 78.0599 6.94816 77.8555C7.44405 77.7562 7.93703 77.724 8.43581 77.727C11.9302 77.727 15.4275 77.727 18.9219 77.727C22.5003 77.727 26.0788 77.727 29.6573 77.727C30.6578 77.7299 30.5853 77.6598 30.5853 78.6966Z" fill="#243876"/>
<path d="M193.305 68.3601C193.299 67.8315 193.261 67.297 193.177 66.7741C193.046 65.9709 192.826 65.1911 192.377 64.4989C191.649 63.3773 190.57 62.8019 189.308 62.5098C188.601 62.3463 187.885 62.2996 187.16 62.2996C179.472 62.3025 171.784 62.3025 164.1 62.2966C163.346 62.2966 162.6 62.355 161.87 62.5215C159.99 62.9509 158.694 64.0199 158.158 65.9476C157.905 66.8501 157.853 67.7614 157.853 68.6843C157.853 72.4579 157.85 76.2315 157.853 80.0051C157.853 80.6769 157.862 81.3458 157.874 82.0175C157.888 82.9434 158.039 83.8547 158.282 84.7455C158.581 85.835 159.054 86.8397 159.811 87.6867C160.753 88.7382 161.951 89.3515 163.299 89.6816C164.247 89.9152 165.213 89.997 166.188 89.997C170.323 89.9883 174.458 89.9941 178.593 89.9941C182.894 89.9941 187.197 89.9941 191.498 89.9941C191.721 89.9941 191.942 89.9999 192.165 89.9912C192.536 89.9766 192.611 89.9152 192.614 89.5472C192.623 88.3176 192.62 87.088 192.614 85.8583C192.611 85.5312 192.533 85.4553 192.234 85.4377C192.04 85.426 191.846 85.4319 191.652 85.4319C189.903 85.4319 188.154 85.4319 186.406 85.4319C180.107 85.4319 173.806 85.429 167.507 85.4348C166.866 85.4348 166.231 85.3939 165.61 85.2274C164.219 84.8536 163.389 83.9306 163.018 82.552C162.693 81.3428 162.803 80.1103 162.798 78.8807C162.798 78.8544 162.809 78.8252 162.815 78.7989C162.838 78.6791 162.908 78.5915 163.032 78.5827C163.308 78.5681 163.586 78.5594 163.862 78.5594C171.439 78.5594 179.014 78.5564 186.591 78.5623C187.342 78.5623 188.088 78.498 188.833 78.4133C189.558 78.3315 190.242 78.0862 190.877 77.7386C191.814 77.2246 192.458 76.4418 192.826 75.4283C193.171 74.4732 193.316 73.4831 193.316 72.4667C193.31 71.0998 193.322 69.7299 193.305 68.3601ZM188.337 72.1454C188.311 72.6595 188.166 73.1443 187.879 73.562C187.484 74.1403 186.925 74.482 186.229 74.5871C185.707 74.6631 185.182 74.6835 184.654 74.6835C181.244 74.6806 177.834 74.6835 174.42 74.6835C170.955 74.6835 167.487 74.6835 164.021 74.6835C163.856 74.6835 163.688 74.6865 163.523 74.6835C162.795 74.6748 162.789 74.6748 162.786 73.9387C162.783 72.5134 162.783 71.0881 162.786 69.6657C162.786 69.2743 162.821 68.8888 162.902 68.5032C163.151 67.3437 163.905 66.7391 165.016 66.5434C165.451 66.4675 165.898 66.4412 166.341 66.4412C172.498 66.4353 178.654 66.4353 184.811 66.4412C185.28 66.4412 185.756 66.4704 186.22 66.5492C187.441 66.7537 188.175 67.5598 188.322 68.8041C188.328 68.8596 188.334 68.9151 188.337 68.9705C188.392 70.0249 188.389 71.0852 188.337 72.1454Z" fill="#243876"/>
<path d="M155.078 72.0667C155.075 70.7202 154.921 69.3942 154.507 68.1032C153.509 65.0014 151.404 63.1613 148.252 62.5158C147.379 62.3377 146.494 62.2968 145.601 62.2997C141.576 62.3085 137.554 62.3026 133.529 62.3026C129.199 62.3026 124.87 62.3026 120.543 62.3026C119.54 62.3026 119.612 62.215 119.612 63.2636C119.612 69.3299 119.612 75.3963 119.612 81.4627C119.612 83.9775 119.612 86.4952 119.612 89.01C119.612 89.2611 119.621 89.5123 119.644 89.7606C119.656 89.8774 119.74 89.968 119.862 89.9738C120.111 89.9884 120.36 89.9943 120.61 89.9943C128.962 89.9943 137.316 89.9943 145.668 89.9943C146.056 89.9943 146.445 89.9943 146.834 89.965C148.086 89.8716 149.301 89.6146 150.447 89.0713C152.236 88.2243 153.486 86.8691 154.243 85.0348C154.849 83.5657 155.075 82.0294 155.078 80.4492C155.081 77.657 155.084 74.8618 155.078 72.0667ZM149.771 82.2367C149.438 83.2123 148.82 83.9337 147.962 84.4536C147.414 84.7866 146.819 85.0231 146.187 85.1517C145.314 85.3298 144.435 85.435 143.542 85.435C137.522 85.432 131.499 85.432 125.479 85.435C124.53 85.435 124.554 85.47 124.554 84.5325C124.557 78.9421 124.554 73.3518 124.554 67.7615C124.554 67.6213 124.551 67.4811 124.557 67.3409C124.574 66.9174 124.615 66.8678 125.052 66.8619C125.914 66.8532 126.772 66.859 127.633 66.859C130.159 66.859 132.685 66.859 135.208 66.859C138.343 66.859 141.48 66.8619 144.615 66.8561C145.143 66.8561 145.665 66.8999 146.187 66.9875C148.025 67.3029 149.145 68.4158 149.684 70.1653C149.997 71.1846 150.14 72.239 150.142 73.308C150.148 75.5161 150.148 77.7242 150.148 79.9323C150.151 80.7238 150.026 81.4861 149.771 82.2367Z" fill="#243876"/>
</g>
<defs>
<clipPath id="clip0_2383_760">
<rect width="280" height="90" fill="white"/>
</clipPath>
</defs>
</svg>
