<?xml version="1.0" encoding="utf-8"?>
<!-- Generator: Adobe Illustrator 24.0.0, SVG Export Plug-In . SVG Version: 6.00 Build 0)  -->
<svg version="1.1" id="Layer_1" xmlns="http://www.w3.org/2000/svg" xmlns:xlink="http://www.w3.org/1999/xlink" x="0px" y="0px"
	 viewBox="0 0 199.9 27.6" style="enable-background:new 0 0 199.9 27.6;" xml:space="preserve">
<style type="text/css">
	.st0{fill:#28255F;}
	.st1{fill:#D0212F;}
</style>
<path class="st0" d="M71.9,0.8L61.1,27.6h3.8l8.3-21l8.2,21h3.9L74.5,0.8H71.9z"/>
<path class="st0" d="M56.7,14.2c-0.8-0.6-1.6-1.1-2.5-1.5c-0.9-0.4-1.8-0.7-2.8-1.1c-0.9-0.3-1.8-0.7-2.5-1.1
	c-0.8-0.4-1.4-0.9-1.8-1.4c-0.5-0.6-0.7-1.3-0.7-2.2c0-1.1,0.4-2,1.3-2.7c0.8-0.6,2-0.9,3.4-0.9c1.2,0,2.2,0.2,3.1,0.7
	c0.9,0.5,1.7,1.2,2.5,2.1l2.4-2.5c-0.9-1.1-2-2-3.4-2.7c-1.4-0.7-2.9-1-4.6-1c-1.6,0-3,0.3-4.2,0.9c-1.3,0.6-2.2,1.4-3,2.5
	c-0.7,1.1-1.1,2.4-1.1,3.9c0,1.4,0.2,2.5,0.7,3.4c0.5,0.9,1.1,1.6,1.8,2.2c0.8,0.6,1.6,1,2.5,1.4c0.9,0.4,1.8,0.7,2.7,1
	c0.9,0.3,1.8,0.7,2.5,1.1c0.8,0.4,1.4,0.9,1.8,1.5c0.5,0.6,0.7,1.4,0.7,2.4c0,1.2-0.5,2.2-1.4,2.9c-1,0.7-2.2,1-3.8,1
	c-1.6,0-2.9-0.3-4-0.9c-1.1-0.6-2.1-1.5-2.9-2.7l-2.4,2.5c1.1,1.5,2.4,2.6,3.9,3.4c1.5,0.8,3.2,1.2,5.3,1.2c2.7,0,4.9-0.7,6.5-2
	c1.6-1.3,2.4-3.2,2.4-5.6c0-1.4-0.2-2.6-0.7-3.5C58.1,15.6,57.5,14.8,56.7,14.2L56.7,14.2z"/>
<path class="st0" d="M140.7,14.2c-0.8-0.6-1.6-1.1-2.5-1.5c-0.9-0.4-1.8-0.7-2.8-1.1c-0.9-0.3-1.8-0.7-2.5-1.1
	c-0.8-0.4-1.4-0.9-1.8-1.4c-0.5-0.6-0.7-1.3-0.7-2.2c0-1.1,0.4-2,1.3-2.7c0.8-0.6,2-0.9,3.4-0.9c1.2,0,2.2,0.2,3.1,0.7
	c0.9,0.5,1.7,1.2,2.5,2.1l2.4-2.5c-0.9-1.1-2-2-3.4-2.7c-1.4-0.7-2.9-1-4.6-1c-1.6,0-3,0.3-4.2,0.9c-1.3,0.6-2.2,1.4-3,2.5
	c-0.7,1.1-1.1,2.4-1.1,3.9c0,1.4,0.2,2.5,0.7,3.4c0.5,0.9,1.1,1.6,1.8,2.2c0.8,0.6,1.6,1,2.5,1.4c0.9,0.4,1.8,0.7,2.7,1
	c0.9,0.3,1.8,0.7,2.5,1.1c0.8,0.4,1.4,0.9,1.8,1.5c0.5,0.6,0.7,1.4,0.7,2.4c0,1.2-0.5,2.2-1.4,2.9c-1,0.7-2.2,1-3.8,1
	s-2.9-0.3-4-0.9c-1.1-0.6-2.1-1.5-2.9-2.7l-2.4,2.5c1.1,1.5,2.4,2.6,3.9,3.4c1.5,0.8,3.2,1.2,5.3,1.2c2.7,0,4.9-0.7,6.5-2
	c1.6-1.3,2.4-3.2,2.4-5.6c0-1.4-0.2-2.6-0.7-3.5C142.1,15.6,141.5,14.8,140.7,14.2L140.7,14.2z"/>
<path class="st0" d="M38,12.3h-7.9v3.2H38V12.3z"/>
<path class="st0" d="M25.2,24.3v-5.4h0v-9h0V4.1H39V0.8H21.6v26.9h17.6v-3.3H25.2z"/>
<path class="st1" d="M26.1,15.5L26.1,15.5l3.1,0v0v-3.2v0h-3.1v0V15.5z"/>
<path class="st0" d="M121.9,12.3h-7.9v3.2h7.9V12.3z"/>
<path class="st0" d="M109.2,24.3v-5.4h0v-9h0V4.1H123V0.8h-17.4v26.9h17.6v-3.3H109.2z"/>
<path class="st1" d="M110.1,15.5L110.1,15.5l3.1,0v0v-3.2v0h-3.1v0V15.5z"/>
<path class="st0" d="M10.3,15.9c1.4-0.1,2.7-0.4,3.8-0.9c1.2-0.6,2.2-1.5,2.9-2.7c0.7-1.1,1-2.5,1-4c0-1.5-0.3-2.8-1-3.9
	c-0.7-1.1-1.6-2-2.9-2.7s-2.7-1-4.4-1H8.4v3.2h1.1c1.5,0,2.7,0.4,3.6,1.3c0.8,0.9,1.2,1.9,1.2,3.2c0,1.4-0.4,2.5-1.3,3.3
	c-0.8,0.8-2,1.2-3.6,1.2h-6V0.8H0v26.9h3.6V15.9h2.3l9.3,11.7h4.5L10.3,15.9z"/>
<path class="st1" d="M7.6,0.8H4.5v3.2h3.1V0.8z"/>
<path class="st0" d="M87.2,27.6h3.6v-5.4h0V0.8h-3.6V27.6z"/>
<path class="st0" d="M103.8,24.3h-8v3.3h8V24.3z"/>
<path class="st1" d="M91.6,27.6L91.6,27.6l3.3,0v0v-3.3h-3.3V27.6z"/>
<path class="st1" d="M157.8,4.3h-4.5l2.2-3.8h6.3v26.7h-4V4.3z"/>
<path class="st1" d="M169.2,13.6c0-4.2,1-7.6,2.9-10.2c1.7-2.3,3.9-3.4,6.3-3.4s4.6,1.1,6.3,3.4c1.9,2.5,2.9,6,2.9,10.3
	s-1,7.8-2.9,10.3c-1.7,2.3-3.8,3.4-6.3,3.4c-2.5,0-4.6-1.1-6.4-3.4C170.2,21.6,169.2,18.1,169.2,13.6z M173.1,13.7
	c0,3,0.5,5.4,1.5,7.4c1,1.9,2.3,2.9,3.9,2.9s2.8-1,3.9-2.9c1-1.9,1.5-4.3,1.5-7.2c0-2.9-0.5-5.3-1.5-7.3c-1-1.9-2.3-2.9-3.9-2.9
	s-2.8,1-3.8,2.9C173.6,8.5,173.1,10.8,173.1,13.7L173.1,13.7z"/>
<path class="st1" d="M196,4.3h-4.5l2.2-3.8h6.3v26.7h-4V4.3z"/>
</svg>
