<svg width="144" height="28" viewBox="0 0 144 28" fill="none" xmlns="http://www.w3.org/2000/svg">
<path d="M71.9369 0.769775L61.123 27.6277H64.9291L73.2083 6.61098L81.4164 27.6277H85.299L74.5235 0.769775H71.9369Z" fill="#28255F"/>
<path d="M56.7161 14.2001C55.956 13.6082 55.1166 13.1163 54.2034 12.7301C53.2901 12.3438 52.3687 11.9881 51.4418 11.6657C50.5149 11.3434 49.6728 10.9877 48.9099 10.6014C48.1498 10.2152 47.5319 9.74275 47.0643 9.18976C46.594 8.63398 46.3589 7.90591 46.3589 7.00278C46.3589 5.86899 46.7772 4.98531 47.6166 4.35173C48.4533 3.72092 49.5825 3.40413 51.0043 3.40413C52.1718 3.40413 53.2054 3.63755 54.1077 4.10163C55.0072 4.5657 55.8521 5.2632 56.6395 6.19135L59.0757 3.71536C58.2117 2.60659 57.0962 1.70901 55.7236 1.02541C54.3537 0.341802 52.8034 0 51.0781 0C49.5032 0 48.0896 0.289004 46.8319 0.86979C45.5742 1.45058 44.5844 2.2759 43.8625 3.34577C43.1407 4.41564 42.7771 5.71338 42.7771 7.2362C42.7771 8.60341 43.0122 9.73998 43.4825 10.6403C43.9528 11.5435 44.568 12.2715 45.3281 12.8273C46.0909 13.3831 46.9276 13.8472 47.8408 14.2195C48.7541 14.5947 49.6673 14.942 50.5833 15.2644C51.4965 15.5867 52.3414 15.948 53.1151 16.3482C53.8889 16.7483 54.5041 17.2568 54.9607 17.8765C55.4173 18.4962 55.647 19.3077 55.647 20.3136C55.647 21.5252 55.1713 22.4811 54.2198 23.1759C53.2683 23.8734 52.005 24.2207 50.4301 24.2207C48.8552 24.2207 47.4854 23.9178 46.3944 23.312C45.3035 22.7062 44.3383 21.8087 43.5016 20.6221L41.0654 23.0981C42.2083 24.5681 43.5153 25.6907 44.9863 26.4661C46.4573 27.2386 48.2346 27.6276 50.318 27.6276C53.0605 27.6276 55.2369 26.9579 56.8474 25.6157C58.4578 24.2735 59.2644 22.4172 59.2644 20.0441C59.2644 18.6241 59.0293 17.4458 58.559 16.5038C58.0887 15.5617 57.4735 14.7948 56.7134 14.2001H56.7161Z" fill="#28255F"/>
<path d="M140.711 14.2001C139.951 13.6082 139.112 13.1163 138.198 12.7301C137.285 12.3438 136.364 11.9881 135.437 11.6657C134.51 11.3434 133.668 10.9877 132.905 10.6014C132.145 10.2152 131.527 9.74275 131.059 9.18976C130.589 8.63398 130.354 7.90591 130.354 7.00278C130.354 5.86899 130.772 4.98531 131.612 4.35173C132.448 3.72092 133.578 3.40413 134.999 3.40413C136.167 3.40413 137.2 3.63755 138.103 4.10163C139.002 4.5657 139.847 5.2632 140.635 6.19135L143.071 3.71536C142.207 2.60659 141.091 1.70901 139.719 1.02541C138.349 0.341802 136.799 0 135.073 0C133.498 0 132.085 0.289004 130.827 0.86979C129.569 1.45058 128.579 2.2759 127.858 3.34577C127.136 4.41564 126.772 5.71338 126.772 7.2362C126.772 8.60341 127.007 9.73998 127.478 10.6403C127.948 11.5435 128.563 12.2715 129.323 12.8273C130.086 13.3831 130.923 13.8472 131.836 14.2195C132.749 14.5947 133.662 14.942 134.578 15.2644C135.492 15.5867 136.336 15.948 137.11 16.3482C137.884 16.7483 138.499 17.2568 138.956 17.8765C139.412 18.4962 139.642 19.3077 139.642 20.3136C139.642 21.5252 139.166 22.4811 138.215 23.1759C137.263 23.8734 136 24.2207 134.425 24.2207C132.85 24.2207 131.48 23.9178 130.39 23.312C129.299 22.7062 128.333 21.8087 127.497 20.6221L125.061 23.0981C126.203 24.5681 127.51 25.6907 128.981 26.4661C130.452 27.2386 132.23 27.6276 134.313 27.6276C137.056 27.6276 139.232 26.9579 140.842 25.6157C142.453 24.2735 143.26 22.4172 143.26 20.0441C143.26 18.6241 143.024 17.4458 142.554 16.5038C142.084 15.5617 141.469 14.7948 140.708 14.2001H140.711Z" fill="#28255F"/>
<path d="M37.9513 12.3021H30.0576V15.4756H37.9513V12.3021Z" fill="#28255F"/>
<path d="M25.1963 24.2986V18.9409H25.1881V9.96787H25.1963V4.09887H39.0205V0.769775H21.6172V27.6277H39.2092V24.2986H25.1963Z" fill="#28255F"/>
<path d="M26.0654 15.4729V15.4757H29.1879V15.4729V12.3022V12.2994H26.0654V12.3022V15.4729Z" fill="#D0212F"/>
<path d="M121.948 12.3021H114.055V15.4756H121.948V12.3021Z" fill="#28255F"/>
<path d="M109.193 24.2986V18.9409H109.185V9.96787H109.193V4.09887H123.015V0.769775H105.614V27.6277H123.206V24.2986H109.193Z" fill="#28255F"/>
<path d="M110.061 15.4729V15.4757H113.183V15.4729V12.3022V12.2994H110.061V12.3022V15.4729Z" fill="#D0212F"/>
<path d="M10.267 15.9286C11.7107 15.8647 12.9821 15.5534 14.0867 14.9949C15.3308 14.3641 16.2877 13.4776 16.9604 12.341C17.633 11.2072 17.972 9.87617 17.972 8.35612C17.972 6.83607 17.633 5.5828 16.9604 4.44901C16.2877 3.31523 15.3308 2.42043 14.0867 1.76184C12.8426 1.10324 11.3826 0.772554 9.70922 0.772554H8.44874V3.94604H9.59438C11.1419 3.94604 12.3286 4.3712 13.1516 5.22432C13.9773 6.07466 14.3902 7.14731 14.3902 8.43671C14.3902 9.80392 13.9719 10.8877 13.1325 11.688C12.2958 12.4883 11.1009 12.8885 9.55336 12.8885H3.57909V0.769775H0V27.6277H3.57909V15.9397H5.91412L15.2296 27.6277H19.7602L10.267 15.9286Z" fill="#28255F"/>
<path d="M7.57365 0.769775H4.45117V3.94326H7.57365V0.769775Z" fill="#D0212F"/>
<path d="M87.1562 27.6192H90.7326V22.231H90.7353V0.761353H87.1562V27.6192Z" fill="#28255F"/>
<path d="M103.759 24.2902H95.7666V27.6193H103.759V24.2902Z" fill="#28255F"/>
<path d="M91.6074 27.6193V27.6276H94.8912V27.6193V24.2902H91.6074V27.6193Z" fill="#D0212F"/>
</svg>
