<svg width="200" height="68" viewBox="0 0 200 68" fill="none" xmlns="http://www.w3.org/2000/svg">
<path d="M4.69885 26.4962C2.74679 25.9308 1.18151 25.1932 0 24.2862L2.07596 19.6787C3.20912 20.5101 4.55381 21.1782 6.11606 21.6801C7.6753 22.185 9.23755 22.4359 10.7968 22.4359C12.5343 22.4359 13.8186 22.1789 14.6465 21.6619C15.4775 21.145 15.8915 20.4587 15.8915 19.6031C15.8915 18.9742 15.6467 18.4512 15.1542 18.037C14.6647 17.6198 14.0331 17.2872 13.2656 17.0363C12.498 16.7854 11.4586 16.5072 10.1501 16.2049C8.13763 15.7272 6.48774 15.2465 5.20349 14.7688C3.91924 14.2911 2.81931 13.5232 1.90069 12.4651C0.982075 11.4069 0.522766 9.99805 0.522766 8.23547C0.522766 6.69963 0.939771 5.30891 1.76774 4.06029C2.59872 2.81469 3.84974 1.82607 5.5238 1.09443C7.2039 0.365819 9.24964 0 11.6671 0C13.3532 0 15.0031 0.202561 16.6137 0.60466C18.2243 1.00676 19.6355 1.58723 20.8412 2.34306L18.9525 6.98987C16.511 5.6052 14.0694 4.91286 11.6278 4.91286C9.91443 4.91286 8.65133 5.19101 7.83243 5.74427C7.01353 6.29753 6.60559 7.02917 6.60559 7.93616C6.60559 8.84315 7.07699 9.51735 8.0228 9.95573C8.96559 10.3971 10.407 10.8325 12.347 11.2588C14.3595 11.7365 16.0093 12.2172 17.2936 12.6948C18.5778 13.1725 19.6778 13.9283 20.5964 14.9623C21.515 15.9963 21.9743 17.393 21.9743 19.1556C21.9743 20.6673 21.5513 22.0459 20.7082 23.2915C19.8651 24.5371 18.599 25.5257 16.9129 26.2574C15.2267 26.989 13.1749 27.3518 10.7575 27.3518C8.66946 27.3518 6.6479 27.0676 4.69885 26.5022V26.4962Z" fill="#CE0E2D"/>
<path d="M29.0873 24.2106C26.9841 22.1215 25.9355 19.1375 25.9355 15.2586V0.453491H32.0516V15.0349C32.0516 19.7694 34.0158 22.1366 37.941 22.1366C39.8538 22.1366 41.3133 21.5652 42.3196 20.4194C43.3258 19.2735 43.8305 17.4807 43.8305 15.0379V0.453491H49.871V15.2616C49.871 19.1405 48.8194 22.1245 46.7193 24.2136C44.6161 26.3057 41.679 27.3488 37.9048 27.3488C34.1306 27.3488 31.1904 26.3027 29.0903 24.2136L29.0873 24.2106Z" fill="#CE0E2D"/>
<path d="M61.2534 25.5922C59.0747 24.4222 57.3644 22.7957 56.1194 20.7187C54.8744 18.6417 54.252 16.2926 54.252 13.6744C54.252 11.0562 54.8744 8.7071 56.1194 6.6301C57.3644 4.55309 59.0777 2.92958 61.2534 1.75654C63.4291 0.58652 65.8767 0 68.5963 0C70.8868 0 72.9567 0.402099 74.806 1.20932C76.6554 2.01654 78.2085 3.17447 79.4686 4.68309L75.5434 8.30803C73.7545 6.24311 71.5425 5.20915 68.8985 5.20915C67.2607 5.20915 65.8012 5.56892 64.5199 6.28544C63.2357 7.00196 62.2355 8.00268 61.5193 9.28758C60.8032 10.5725 60.4436 12.0327 60.4436 13.6683C60.4436 15.3039 60.8032 16.7672 61.5193 18.0491C62.2355 19.334 63.2387 20.3347 64.5199 21.0512C65.8042 21.7678 67.2637 22.1275 68.8985 22.1275C71.5425 22.1275 73.7545 21.0815 75.5434 18.9924L79.4686 22.6173C78.2085 24.1531 76.6493 25.3262 74.7879 26.1304C72.9235 26.9376 70.8475 27.3397 68.56 27.3397C65.8676 27.3397 63.4321 26.7532 61.2534 25.5832V25.5922Z" fill="#CE0E2D"/>
<path d="M88.3628 25.5922C86.1841 24.4222 84.4737 22.7957 83.2288 20.7187C81.9838 18.6417 81.3613 16.2926 81.3613 13.6744C81.3613 11.0562 81.9838 8.7071 83.2288 6.6301C84.4737 4.55309 86.1871 2.92958 88.3628 1.75654C90.5384 0.58652 92.9861 0 95.7057 0C97.9962 0 100.066 0.402099 101.915 1.20932C103.765 2.01654 105.318 3.17447 106.578 4.68309L102.653 8.30803C100.864 6.24311 98.6519 5.20915 96.0078 5.20915C94.3701 5.20915 92.9105 5.56892 91.6293 6.28544C90.3451 7.00196 89.3448 8.00268 88.6287 9.28758C87.9125 10.5725 87.5529 12.0327 87.5529 13.6683C87.5529 15.3039 87.9125 16.7672 88.6287 18.0491C89.3448 19.334 90.3481 20.3347 91.6293 21.0512C92.9136 21.7678 94.3731 22.1275 96.0078 22.1275C98.6519 22.1275 100.864 21.0815 102.653 18.9924L106.578 22.6173C105.318 24.1531 103.759 25.3262 101.897 26.1304C100.033 26.9376 97.9569 27.3397 95.6694 27.3397C92.977 27.3397 90.5415 26.7532 88.3628 25.5832V25.5922Z" fill="#CE0E2D"/>
<path d="M131.153 21.9824V26.8923H110.689V0.453491H130.66V5.36333H116.766V11.1046H129.035V15.8633H116.766V21.9824H131.15H131.153Z" fill="#CE0E2D"/>
<path d="M138.648 26.4962C136.696 25.9308 135.131 25.1932 133.949 24.2862L136.025 19.6787C137.158 20.5101 138.503 21.1782 140.065 21.6801C141.625 22.185 143.187 22.4359 144.746 22.4359C146.484 22.4359 147.768 22.1789 148.596 21.6619C149.427 21.145 149.841 20.4587 149.841 19.6031C149.841 18.9742 149.596 18.4512 149.103 18.037C148.614 17.6198 147.982 17.2872 147.215 17.0363C146.447 16.7854 145.408 16.5072 144.099 16.2049C142.087 15.7272 140.437 15.2465 139.153 14.7688C137.868 14.2911 136.769 13.5232 135.85 12.4651C134.931 11.4069 134.472 9.99805 134.472 8.23547C134.472 6.69963 134.889 5.30891 135.717 4.06029C136.548 2.81469 137.799 1.82607 139.473 1.09443C141.147 0.362796 143.193 0 145.607 0C147.293 0 148.943 0.202561 150.554 0.60466C152.164 1.00676 153.576 1.58723 154.781 2.34306L152.893 6.98987C150.451 5.6052 148.01 4.91286 145.568 4.91286C143.855 4.91286 142.591 5.19101 141.773 5.74427C140.954 6.29753 140.546 7.02917 140.546 7.93616C140.546 8.84315 141.017 9.51735 141.963 9.95573C142.906 10.3971 144.347 10.8325 146.287 11.2588C148.3 11.7365 149.949 12.2172 151.234 12.6948C152.518 13.1725 153.618 13.9283 154.537 14.9623C155.455 15.9963 155.914 17.393 155.914 19.1556C155.914 20.6673 155.491 22.0459 154.648 23.2915C153.805 24.5371 152.539 25.5257 150.853 26.2574C149.167 26.989 147.115 27.3518 144.698 27.3518C142.61 27.3518 140.588 27.0676 138.639 26.5022L138.648 26.4962Z" fill="#CE0E2D"/>
<path d="M162.734 26.4962C160.782 25.9308 159.217 25.1932 158.035 24.2862L160.111 19.6787C161.244 20.5101 162.589 21.1782 164.151 21.6801C165.71 22.185 167.273 22.4359 168.832 22.4359C170.569 22.4359 171.854 22.1789 172.682 21.6619C173.513 21.145 173.927 20.4587 173.927 19.6031C173.927 18.9742 173.682 18.4512 173.189 18.037C172.7 17.6198 172.068 17.2872 171.301 17.0363C170.533 16.7854 169.494 16.5072 168.185 16.2049C166.173 15.7272 164.523 15.2465 163.239 14.7688C161.954 14.2911 160.854 13.5232 159.936 12.4651C159.017 11.4069 158.558 9.99805 158.558 8.23547C158.558 6.69963 158.975 5.30891 159.803 4.06029C160.634 2.81469 161.885 1.82607 163.559 1.09443C165.233 0.362796 167.279 0 169.693 0C171.379 0 173.029 0.202561 174.64 0.60466C176.25 1.00676 177.662 1.58723 178.867 2.34306L176.979 6.98987C174.537 5.6052 172.095 4.91286 169.654 4.91286C167.941 4.91286 166.677 5.19101 165.859 5.74427C165.04 6.29753 164.632 7.02917 164.632 7.93616C164.632 8.84315 165.103 9.51735 166.049 9.95573C166.992 10.3971 168.433 10.8325 170.373 11.2588C172.386 11.7365 174.035 12.2172 175.32 12.6948C176.604 13.1725 177.704 13.9283 178.622 14.9623C179.541 15.9963 180 17.393 180 19.1556C180 20.6673 179.577 22.0459 178.734 23.2915C177.891 24.5371 176.625 25.5257 174.939 26.2574C173.253 26.989 171.201 27.3518 168.784 27.3518C166.696 27.3518 164.674 27.0676 162.725 26.5022L162.734 26.4962Z" fill="#CE0E2D"/>
<path d="M4.23599 66.6952C2.40786 66.0568 0.996883 65.2129 0 64.1633L1.11037 61.9783C2.08272 62.9511 3.371 63.7368 4.98135 64.3352C6.5917 64.9367 8.25113 65.2375 9.9627 65.2375C12.3644 65.2375 14.1649 64.7955 15.3673 63.9148C16.5667 63.034 17.1679 61.8893 17.1679 60.4837C17.1679 59.4096 16.8427 58.5534 16.1894 57.9151C15.5391 57.2767 14.7385 56.7827 13.7938 56.4389C12.8491 56.0952 11.5332 55.7177 9.84614 55.3065C7.82784 54.794 6.21749 54.303 5.01816 53.8304C3.81576 53.3578 2.78821 52.6366 1.93242 51.6637C1.07663 50.6909 0.647207 49.3774 0.647207 47.7141C0.647207 46.3607 1.00609 45.127 1.72077 44.013C2.43546 42.9021 3.53357 42.0121 5.01816 41.3492C6.49968 40.6832 8.34008 40.3518 10.5363 40.3518C12.07 40.3518 13.5699 40.5636 15.0391 40.984C16.5084 41.4075 17.7783 41.9875 18.8518 42.7302L17.8948 44.992C16.7691 44.2493 15.5698 43.6938 14.2938 43.3256C13.0147 42.9542 11.7632 42.7701 10.5394 42.7701C8.18978 42.7701 6.41993 43.2243 5.23287 44.1327C4.04581 45.0411 3.45075 46.2103 3.45075 47.6404C3.45075 48.7145 3.77589 49.5769 4.42923 50.2275C5.08257 50.8781 5.89848 51.3783 6.8831 51.7221C7.86771 52.0658 9.18973 52.4432 10.8492 52.8545C12.8153 53.3394 14.4073 53.8181 15.6189 54.2938C16.8335 54.7664 17.8611 55.4814 18.7046 56.442C19.5481 57.3995 19.9683 58.6976 19.9683 60.3334C19.9683 61.6898 19.6033 62.9204 18.8764 64.0344C18.1494 65.1454 17.0298 66.0292 15.5238 66.6798C14.0146 67.3304 12.165 67.6588 9.96577 67.6588C7.972 67.6588 6.06412 67.3396 4.23599 66.7013V66.6952Z" fill="#253875"/>
<path d="M45.108 64.9704V67.4255H26.1396V40.585H44.5344V43.0401H28.9739V52.5874H42.8474V55.0026H28.9739V64.9704H45.108Z" fill="#253875"/>
<path d="M79.634 40.5819V67.4224H76.9133V45.9494L66.3739 64.0098H65.0335L54.4942 46.066V67.4224H51.7734V40.5819H54.1107L65.7605 60.4806L77.2967 40.5819H79.634Z" fill="#253875"/>
<path d="M88.3721 40.5819H91.2094V67.4224H88.3721V40.5819Z" fill="#253875"/>
<path d="M122.364 40.5819V67.4224H120.027L102.783 45.6456V67.4224H99.9453V40.5819H102.283L119.567 62.3588V40.5819H122.364Z" fill="#253875"/>
<path d="M147.925 60.2535H132.978L129.757 67.4224H126.807L139.07 40.5819H141.867L154.13 67.4224H151.14L147.919 60.2535H147.925ZM146.892 57.9518L140.453 43.5342L134.015 57.9518H146.892Z" fill="#253875"/>
<path d="M176.895 67.4224L170.764 58.7958C170.074 58.8725 169.359 58.9124 168.617 58.9124H161.412V67.4255H158.574V40.585H168.614C172.037 40.585 174.721 41.4044 176.662 43.0401C178.604 44.6758 179.576 46.9253 179.576 49.7886C179.576 51.8846 179.046 53.6554 177.987 55.0978C176.926 56.5432 175.414 57.5836 173.445 58.2219L180 67.4255H176.895V67.4224ZM174.635 54.7326C176.04 53.5572 176.742 51.9092 176.742 49.7855C176.742 47.6618 176.04 45.9463 174.635 44.7832C173.23 43.6201 171.199 43.0401 168.54 43.0401H161.412V56.4972H168.54C171.196 56.4972 173.227 55.9079 174.635 54.7326Z" fill="#253875"/>
</svg>
