<svg width="200" height="28" viewBox="0 0 200 28" fill="none" xmlns="http://www.w3.org/2000/svg">
<g clip-path="url(#clip0_392_1275)">
<path d="M194.119 16.35C194.119 11.0395 194.13 5.90767 194.105 0.778465C194.103 0.210627 194.27 0.0906613 194.811 0.103991C196.374 0.138648 197.936 0.13065 199.499 0.106657C199.903 0.101325 200 0.215959 200 0.607847C199.99 9.52796 199.99 18.4481 200 27.3655C200 27.8081 199.86 27.8854 199.451 27.8801C197.928 27.8561 196.406 27.8694 194.884 27.8721C194.641 27.8721 194.437 27.8774 194.267 27.6215C192.715 25.3021 191.09 23.0254 189.593 20.6741C187.642 17.6083 185.513 14.6625 183.531 11.61C183.323 11.7327 183.417 11.9113 183.417 12.0472C183.409 13.6921 183.401 15.3343 183.42 16.9792C183.425 17.3417 183.337 17.4617 182.951 17.4564C181.286 17.435 179.624 17.4404 177.959 17.4564C177.609 17.459 177.466 17.3977 177.466 17.0032C177.479 11.5914 177.479 6.17959 177.466 0.767801C177.466 0.418568 177.576 0.335925 177.913 0.338591C179.557 0.354586 181.2 0.35192 182.843 0.338591C183.14 0.338591 183.307 0.4239 183.474 0.67716C186.866 5.70772 190.271 10.7276 193.674 15.7502C193.785 15.9101 193.903 16.0648 194.116 16.358L194.119 16.35Z" fill="#28245F"/>
<path d="M27.4297 16.1553C27.4297 14.4998 27.4512 12.8443 27.4162 11.1887C27.4054 10.6982 27.5617 10.5916 28.0305 10.5996C29.612 10.6262 31.1962 10.6209 32.7804 10.5996C33.1792 10.5942 33.3462 10.6716 33.3435 11.1194C33.3273 16.5312 33.3273 21.943 33.3435 27.3548C33.3435 27.7973 33.1899 27.88 32.7858 27.8746C31.2636 27.8533 29.7413 27.8613 28.2191 27.872C27.9362 27.872 27.7395 27.8213 27.5644 27.5627C26.0341 25.2754 24.4418 23.0254 22.9573 20.7087C21.0282 17.7015 18.9645 14.7877 16.9842 11.8152C16.933 11.7379 16.8684 11.6713 16.7202 11.4927C16.7202 11.8312 16.7202 12.0418 16.7202 12.2524C16.7309 16.2193 16.7444 20.1888 16.7498 24.1557C16.7498 25.2167 16.7094 26.2778 16.7309 27.3388C16.739 27.7307 16.5989 27.7973 16.2433 27.792C14.6402 27.776 13.0372 27.76 11.4341 27.7973C10.9168 27.808 10.8117 27.6614 10.8117 27.1708C10.8279 19.4157 10.8225 11.6633 10.8225 3.90816C10.8225 2.88712 10.8468 1.86341 10.8117 0.842366C10.7956 0.405157 10.9411 0.319848 11.3533 0.32518C12.9348 0.349173 14.519 0.349173 16.1032 0.32518C16.4804 0.319848 16.6717 0.463807 16.871 0.759723C20.3439 5.90492 23.8275 11.0421 27.3085 16.1793L27.427 16.1527L27.4297 16.1553Z" fill="#28245F"/>
<path d="M84.8978 10.3944C84.8978 13.2202 84.9464 16.0461 84.8871 18.8719C84.7658 24.6596 80.3258 27.9947 75.2903 27.8827C71.3459 27.7947 68.323 26.1232 66.6688 22.4283C66.1353 21.2366 65.9413 19.9676 65.9252 18.6827C65.8901 16.0781 65.9252 13.4708 65.9063 10.8662C65.9036 10.4477 66.0087 10.3224 66.4425 10.3304C68.0051 10.357 69.5677 10.357 71.1304 10.3304C71.5965 10.3224 71.7474 10.4263 71.742 10.9169C71.715 13.3615 71.7393 15.8088 71.7231 18.2534C71.7177 19.0692 71.8659 19.8477 72.1892 20.5861C72.7146 21.7884 74.0886 22.5349 75.5866 22.4736C77.0334 22.4149 78.2189 21.5858 78.7065 20.3702C78.9894 19.6664 79.0999 18.9492 79.0999 18.2028C79.0972 12.6897 79.1053 7.17928 79.0864 1.66618C79.0864 1.17832 79.1888 1.0157 79.7088 1.02637C81.2714 1.06102 82.8341 1.05569 84.3967 1.02637C84.8251 1.01837 84.9329 1.13567 84.9302 1.55688C84.9113 4.50271 84.9194 7.44853 84.9194 10.397C84.9113 10.397 84.9032 10.397 84.8952 10.397L84.8978 10.3944Z" fill="#28255F"/>
<path d="M114.752 19.2372C112.419 24.2305 108.701 27.3362 103.132 27.8694C97.3073 28.4266 92.7891 26.0593 89.8847 21.1433C84.9139 12.7324 89.5964 2.96454 98.2745 0.759837C99.2983 0.498579 100.344 0.373281 101.4 0.333293C101.704 0.322629 101.825 0.391943 101.82 0.725181C101.804 2.24741 101.804 3.77231 101.82 5.29454C101.823 5.60912 101.72 5.70509 101.405 5.71042C98.0913 5.77174 94.4595 8.28302 93.7374 12.6204C93.274 15.401 94.1065 17.8136 95.979 19.941C97.2157 21.346 98.7137 22.2337 100.551 22.527C102.925 22.9082 104.994 22.199 106.783 20.6502C107.036 20.4316 107.265 20.1703 107.448 19.8904C107.809 19.3412 108.292 19.2106 108.936 19.2239C110.843 19.2666 112.751 19.2399 114.755 19.2399L114.752 19.2372Z" fill="#28245F"/>
<path d="M126.062 14.1906C126.062 18.5387 126.049 22.8895 126.078 27.2376C126.081 27.7894 125.919 27.8907 125.405 27.8774C123.883 27.8427 122.36 27.8427 120.841 27.8774C120.342 27.888 120.202 27.7734 120.205 27.2642C120.224 20.3888 120.21 13.5161 120.232 6.64077C120.232 6.09959 120.108 5.94497 119.548 5.9583C117.823 5.99829 116.099 5.9663 114.375 5.97962C114.038 5.97962 113.868 5.94763 113.876 5.53975C113.903 3.99619 113.895 2.45263 113.879 0.911739C113.876 0.583833 113.952 0.466533 114.31 0.466533C118.085 0.479862 121.859 0.485194 125.634 0.461201C126.148 0.458535 126.065 0.730457 126.065 1.02371C126.065 5.41179 126.065 9.80253 126.065 14.1906H126.062Z" fill="#28245F"/>
<path d="M5.84107 14.1133C5.84107 18.4214 5.83298 22.7295 5.85184 27.0402C5.85184 27.5174 5.77102 27.6961 5.23756 27.6827C3.67492 27.6454 2.11227 27.6561 0.549621 27.6774C0.150876 27.6827 0 27.6161 0 27.1682C0.0134711 18.432 0.0134711 9.6932 0 0.957032C0 0.55448 0.118546 0.461174 0.509207 0.466506C2.11227 0.487833 3.71533 0.490499 5.31839 0.466506C5.76024 0.458508 5.84915 0.599801 5.84915 1.01035C5.83568 5.37977 5.84107 9.74652 5.84107 14.1159V14.1133Z" fill="#28245F"/>
<path d="M142.732 18.2908C142.732 21.2153 142.718 24.1398 142.745 27.0643C142.751 27.5815 142.592 27.6882 142.101 27.6775C140.541 27.6455 138.979 27.6562 137.416 27.6722C137.055 27.6748 136.891 27.6348 136.891 27.203C136.907 21.2527 136.907 15.3024 136.891 9.35205C136.891 8.94417 137.017 8.86419 137.4 8.86953C139.003 8.89085 140.606 8.89352 142.206 8.86953C142.635 8.86153 142.742 8.97616 142.74 9.39737C142.721 12.3619 142.729 15.3263 142.729 18.2908H142.732Z" fill="#28245F"/>
<path d="M159.417 15.2304C159.36 16.0168 159.57 16.8512 159.85 17.6697C161.055 21.1833 163.493 23.6493 166.677 25.4701C167.359 25.8593 168.073 26.1952 168.779 26.5418C169.056 26.6778 169.415 26.7791 169.25 27.1656C169.094 27.5389 168.72 27.5015 168.407 27.3709C167.383 26.939 166.4 26.4272 165.454 25.846C163.366 24.5557 161.515 22.9962 160.225 20.9114C158.724 18.4881 157.778 15.9048 158.576 12.9937C158.74 12.3912 158.959 11.81 159.392 11.3381C160.171 10.4904 161.249 10.533 161.93 11.4661C162.698 12.5165 162.849 13.7481 162.911 14.9984C162.922 15.217 162.922 15.441 162.903 15.6596C162.827 16.5607 162.386 16.9632 161.502 16.9445C160.71 16.9286 160.087 16.3074 160.06 15.5183C160.052 15.2757 160.187 15.1397 160.386 15.0651C160.634 14.9718 160.866 15.0198 161.055 15.2144C161.095 15.257 161.111 15.3183 161.141 15.3717C161.276 15.6143 161.211 16.1075 161.591 16.0381C161.984 15.9635 161.831 15.473 161.823 15.201C161.796 14.164 161.712 13.1216 161.171 12.1859C161.033 11.9486 160.909 11.6367 160.575 11.6581C160.281 11.6741 160.166 11.9646 160.044 12.1886C159.546 13.1136 159.398 14.1134 159.417 15.2384V15.2304Z" fill="#28245F"/>
<path d="M180.429 27.864C178.777 27.864 177.452 26.555 177.46 24.9288C177.468 23.3 178.799 22.0017 180.451 22.0097C182.056 22.0177 183.385 23.3266 183.406 24.9182C183.428 26.5177 182.07 27.864 180.432 27.864H180.429Z" fill="#D0212F"/>
<path d="M27.4326 3.26568C27.4326 1.63415 28.7582 0.333185 30.4097 0.338517C32.0532 0.343849 33.3734 1.6688 33.3599 3.29767C33.3464 4.88122 32.0101 6.20084 30.407 6.21151C28.7824 6.22217 27.4299 4.88655 27.4326 3.26835V3.26568Z" fill="#D0212F"/>
<path d="M130.984 6.13686C129.311 6.14486 128.005 4.86789 128.013 3.23369C128.021 1.63681 129.333 0.343849 130.947 0.338517C132.596 0.333185 133.94 1.65014 133.927 3.25502C133.913 4.85723 132.612 6.12886 130.984 6.13419V6.13686Z" fill="#28245F"/>
<path d="M65.9004 3.21512C65.9004 1.58891 67.1855 0.325276 68.8263 0.338605C70.4105 0.349269 71.7172 1.64223 71.7307 3.20712C71.7441 4.79067 70.4159 6.10762 68.8048 6.11029C67.1667 6.11296 65.9004 4.85198 65.9031 3.21512H65.9004Z" fill="#28245F"/>
<path d="M139.865 0.557146C141.528 0.551814 142.807 1.79146 142.813 3.40966C142.818 5.0252 141.528 6.29684 139.887 6.29684C138.262 6.29684 136.948 4.99588 136.961 3.40167C136.977 1.81012 138.249 0.562478 139.865 0.559812V0.557146Z" fill="#D0212F"/>
<path d="M172.699 6.88604C172.662 7.1313 172.565 7.27526 172.33 7.33658C171.983 7.42455 171.756 7.31258 171.568 7.01933C170.859 5.91298 170.002 4.92393 168.997 4.07351C166.077 1.60222 162.715 0.522524 158.873 1.01572C158.773 1.02905 158.671 1.04504 158.571 1.04238C158.304 1.03704 158.078 0.943737 158.04 0.655819C158 0.351906 158.213 0.229274 158.477 0.18662C159.438 0.0319974 160.406 -0.0453139 161.381 0.0293315C166.123 0.389229 169.765 2.6046 172.441 6.44083C172.543 6.58746 172.621 6.75008 172.702 6.88604H172.699Z" fill="#28245F"/>
<path d="M161.065 7.16858C162.873 7.22989 164.43 8.38157 165.592 10.1677C165.732 10.3837 165.807 10.6236 165.549 10.8049C165.266 11.0048 164.956 10.9888 164.724 10.7329C164.511 10.4956 164.366 10.1997 164.166 9.94912C162.213 7.45117 159.225 7.39518 157.175 9.80783C156.458 10.6503 155.981 11.618 155.69 12.6683C155.569 13.1109 155.375 13.3801 154.898 13.2468C154.365 13.0976 154.559 12.7057 154.661 12.3618C155.219 10.4956 156.2 8.93074 157.924 7.9017C158.789 7.38718 159.635 7.16858 161.065 7.17125V7.16858Z" fill="#28245F"/>
<path d="M153.325 14.9397C153.303 16.7339 153.767 18.3041 154.527 19.8183C155.486 21.7325 156.871 23.204 158.829 24.1291C159.104 24.2597 159.309 24.425 159.155 24.7209C158.988 25.0409 158.681 25.0488 158.363 24.9182C157.121 24.4117 156.068 23.6333 155.206 22.6335C153.139 20.2396 152.086 17.4777 152.263 14.3026C152.272 14.164 152.277 14.0147 152.328 13.892C152.439 13.6388 152.668 13.5508 152.929 13.5961C153.19 13.6388 153.382 13.7747 153.365 14.0787C153.349 14.3986 153.336 14.7185 153.325 14.9424V14.9397Z" fill="#28245F"/>
<path d="M147.603 10.3198C147.131 10.3091 146.989 10.0479 147.191 9.52267C147.784 7.97911 148.597 6.55819 149.659 5.28122C151.294 3.30845 153.29 1.82354 155.71 0.906467C155.861 0.850483 156.009 0.778504 156.165 0.743847C156.464 0.677199 156.758 0.703858 156.868 1.03176C156.976 1.35434 156.744 1.48763 156.472 1.58894C152.442 3.09784 149.772 5.9317 148.215 9.85324C148.064 10.2345 147.932 10.3251 147.6 10.3171L147.603 10.3198Z" fill="#28245F"/>
<path d="M160.673 5.36914C162.2 5.3798 163.575 5.849 164.825 6.6941C165.064 6.85672 165.431 7.01134 165.169 7.38457C164.93 7.7258 164.588 7.68848 164.262 7.46188C163.475 6.91803 162.626 6.50748 161.672 6.35019C159.194 5.93964 157.254 6.8967 155.64 8.67486C155.096 9.27469 154.673 9.9545 154.325 10.6796C154.145 11.0582 153.891 11.2715 153.466 11.0742C152.986 10.8502 153.221 10.5063 153.374 10.2158C154.697 7.68048 156.645 5.93165 159.584 5.45178C159.943 5.39313 160.309 5.3958 160.673 5.37181V5.36914Z" fill="#28245F"/>
<path d="M150.184 15.3396C150.264 11.9699 151.248 9.10135 153.487 6.7127C153.597 6.5954 153.702 6.47011 153.832 6.37413C154.101 6.17152 154.403 6.13953 154.661 6.37413C154.974 6.65672 154.723 6.86733 154.524 7.0726C153.347 8.28825 152.476 9.69052 151.943 11.2927C151.399 12.9296 151.18 14.5985 151.361 16.3153C151.374 16.4539 151.38 16.5952 151.396 16.7338C151.434 17.0804 151.269 17.2697 150.925 17.2937C150.566 17.3203 150.34 17.171 150.308 16.7952C150.262 16.2566 150.219 15.7208 150.186 15.3396H150.184Z" fill="#28245F"/>
<path d="M160.678 2.67661C159.034 2.66861 157.472 3.03651 155.995 3.7563C155.904 3.80162 155.823 3.86294 155.731 3.90293C155.408 4.04155 155.068 4.08154 154.88 3.73231C154.67 3.34042 155.028 3.20446 155.295 3.07649C159.18 1.21036 162.992 1.36498 166.718 3.51637C167.049 3.70831 167.354 3.94291 167.672 4.15619C167.887 4.30281 168.065 4.48409 167.893 4.75068C167.734 4.99595 167.478 5.07059 167.2 4.95596C167.055 4.89464 166.926 4.79067 166.794 4.69737C164.964 3.4044 162.938 2.68994 160.678 2.67128V2.67661Z" fill="#28245F"/>
<path d="M160.786 3.55896C164.843 3.7749 167.783 5.88096 169.698 9.51193C169.844 9.78918 169.9 10.0504 169.553 10.2211C169.203 10.3943 168.904 10.2957 168.737 9.9598C168.351 9.18402 167.904 8.44823 167.338 7.79242C165.342 5.47308 162.874 4.21477 159.716 4.51869C159.595 4.52935 159.471 4.53735 159.353 4.52135C159.107 4.48936 158.932 4.36673 158.927 4.10014C158.922 3.86021 159.067 3.74024 159.293 3.69492C159.393 3.67359 159.49 3.64693 159.592 3.63894C159.935 3.61228 160.279 3.59362 160.786 3.56163V3.55896Z" fill="#28245F"/>
<path d="M175.049 15.3102C175.059 16.1793 174.973 17.1337 174.795 18.0828C174.72 18.488 174.486 18.6373 174.114 18.5733C173.745 18.5093 173.645 18.2614 173.71 17.9015C174.267 14.8037 173.925 11.8099 172.618 8.93339C172.492 8.65614 172.328 8.35222 172.732 8.16828C173.133 7.98433 173.424 8.12296 173.61 8.52817C174.585 10.6556 175.078 12.8816 175.046 15.3129L175.049 15.3102Z" fill="#28245F"/>
<path d="M151.256 18.3574C151.65 18.3254 151.776 18.576 151.89 18.8826C152.881 21.5538 154.554 23.7078 156.92 25.3314C157.367 25.638 157.847 25.9019 158.321 26.1685C158.56 26.3044 158.722 26.4724 158.577 26.7443C158.45 26.9789 158.224 27.0722 157.957 26.9789C157.768 26.9123 157.58 26.8323 157.405 26.7363C154.837 25.326 152.876 23.3266 151.515 20.7594C151.227 20.2155 151.019 19.6263 150.804 19.0478C150.653 18.6453 150.796 18.384 151.256 18.3574Z" fill="#28245F"/>
<path d="M160.629 8.93872C162.319 9.03736 163.342 10.0397 164.083 11.4233C164.358 11.9352 164.541 12.4844 164.69 13.0469C164.781 13.3961 164.725 13.6547 164.355 13.7507C163.973 13.852 163.725 13.668 163.633 13.3028C163.509 12.7963 163.345 12.3058 163.111 11.8366C162.841 11.2927 162.502 10.7995 162.03 10.405C161.109 9.62919 160.101 9.62652 159.177 10.413C158.498 10.9915 158.089 11.7433 157.811 12.5697C157.687 12.9429 157.466 13.1668 157.049 13.0682C156.79 13.0069 156.583 12.8309 156.68 12.5457C157.2 11.0208 157.967 9.69317 159.619 9.112C159.751 9.06402 159.888 9.02936 160.029 9.00537C160.228 8.97338 160.43 8.96005 160.629 8.93872Z" fill="#28245F"/>
<path d="M166.968 15.1823C166.998 17.1844 166.357 18.9919 165.328 20.6794C165.163 20.9487 164.945 21.2019 164.7 21.4045C164.457 21.6071 164.153 21.5538 163.927 21.3405C163.725 21.1513 163.827 20.9513 163.97 20.7567C165.726 18.3734 166.281 15.7475 165.578 12.8736C165.497 12.5377 165.586 12.3111 165.934 12.2445C166.263 12.1805 166.535 12.2525 166.637 12.6337C166.858 13.4708 166.955 14.3212 166.968 15.1823Z" fill="#28245F"/>
<path d="M146.156 15.1584C146.145 13.9934 146.299 12.847 146.53 11.7087C146.614 11.2955 146.808 11.0316 147.269 11.1222C147.759 11.2182 147.683 11.5834 147.608 11.9273C147.031 14.5612 147.15 17.1631 147.956 19.7357C147.985 19.8317 148.028 19.9277 148.031 20.0263C148.039 20.3036 148.063 20.6128 147.675 20.6715C147.352 20.7195 147.123 20.6715 146.991 20.2796C146.436 18.6134 146.164 16.9099 146.159 15.1584H146.156Z" fill="#28245F"/>
<path d="M172.956 13.6975C173.015 14.0254 172.81 14.2173 172.454 14.2306C172.11 14.2413 171.902 14.0707 171.862 13.6948C171.533 10.8049 170.428 8.25634 168.402 6.12095C168.241 5.95033 168.111 5.76105 168.281 5.53712C168.443 5.32385 168.677 5.28386 168.936 5.34784C169.127 5.39582 169.243 5.53445 169.364 5.66775C171.404 7.86179 172.541 10.4637 172.937 13.3989C172.947 13.4788 172.947 13.5588 172.956 13.6975Z" fill="#28245F"/>
<path d="M149.279 14.9503C149.255 17.3443 149.81 19.5117 150.815 21.5751C150.96 21.871 151.186 22.1723 150.769 22.3909C150.34 22.6175 150.039 22.4042 149.842 22.007C148.85 20.0076 148.258 17.9068 148.209 15.6728C148.196 15.0543 148.228 14.4332 148.242 13.812C148.25 13.4041 148.382 13.0815 148.864 13.1109C149.335 13.1375 149.373 13.4654 149.335 13.8467C149.295 14.2439 149.292 14.6438 149.279 14.9503Z" fill="#28245F"/>
<path d="M149.251 12.5164C148.586 12.5004 148.47 12.2551 148.581 11.7993C149.154 9.43727 150.251 7.35253 151.943 5.58504C152.317 5.19315 152.722 4.82792 153.134 4.47335C153.425 4.22276 153.78 4.16411 154.055 4.47069C154.354 4.80659 154.028 5.00387 153.799 5.19581C151.682 6.9793 150.348 9.23733 149.677 11.8899C149.596 12.2125 149.526 12.5324 149.251 12.5164Z" fill="#28245F"/>
<path d="M158.862 21.5272C159.096 21.5512 159.276 21.6605 159.411 21.8551C160.936 24.0651 163 25.6833 165.279 27.0669C165.414 27.1496 165.565 27.2402 165.648 27.3655C165.826 27.6321 165.6 27.976 165.241 27.9733C165.069 27.9733 164.875 27.9147 164.727 27.824C162.334 26.3951 160.163 24.7156 158.549 22.4176C158.409 22.2176 158.239 22.0204 158.393 21.7671C158.492 21.6045 158.676 21.5485 158.862 21.5219V21.5272Z" fill="#28245F"/>
<path d="M168.99 15.3529C168.968 15.6622 168.941 16.182 168.893 16.6992C168.858 17.0911 168.658 17.3497 168.222 17.2857C167.812 17.2244 167.761 16.9578 167.804 16.5766C168.06 14.2572 167.726 12.0419 166.524 9.9918C166.357 9.70921 166.169 9.3893 166.594 9.18136C166.955 9.00541 167.244 9.14137 167.454 9.49327C168.494 11.2394 168.965 13.1349 168.99 15.3556V15.3529Z" fill="#28245F"/>
<path d="M171.005 15.0623C171.026 16.5286 170.808 17.8456 170.393 19.1332C170.363 19.2292 170.323 19.3198 170.291 19.4158C170.151 19.7943 169.865 19.8823 169.512 19.757C169.164 19.6344 169.173 19.3838 169.278 19.0719C169.773 17.6163 169.994 16.1154 169.903 14.5798C169.87 14.0413 169.798 13.5055 169.709 12.9723C169.649 12.615 169.647 12.3165 170.089 12.2392C170.514 12.1672 170.719 12.3671 170.792 12.783C170.932 13.5748 171.029 14.3665 171.005 15.0623Z" fill="#29255F"/>
<path d="M173.826 19.3411C174.197 19.3677 174.445 19.5037 174.332 19.9382C173.788 22.023 172.724 23.8385 171.328 25.4727C171.061 25.7846 170.73 25.8246 170.42 25.5713C170.1 25.3127 170.342 25.0754 170.523 24.8595C171.748 23.3773 172.697 21.7484 173.219 19.8929C173.303 19.5943 173.413 19.3091 173.823 19.3411H173.826Z" fill="#28245F"/>
<path d="M156.876 14.7531C157.186 14.7718 157.361 14.9184 157.367 15.2783C157.394 16.8725 157.706 18.4108 158.361 19.8717C158.506 20.1969 158.444 20.4902 158.137 20.6288C157.814 20.7727 157.544 20.6794 157.375 20.2902C156.688 18.7307 156.321 17.1098 156.281 15.4116C156.27 15.0037 156.399 14.7478 156.879 14.7531H156.876Z" fill="#29255F"/>
<path d="M173.012 16.0354C172.958 17.6323 172.519 19.1439 172.007 20.6421C171.875 21.0287 171.584 21.1193 171.236 21.0207C170.845 20.9114 170.835 20.5994 170.956 20.2929C171.514 18.8853 171.84 17.4297 171.923 15.9208C171.945 15.5502 172.184 15.3903 172.532 15.4036C172.858 15.4169 173.03 15.6622 173.009 16.0381L173.012 16.0354Z" fill="#29255F"/>
<path d="M164.915 15.8461C164.826 17.1764 164.449 18.5653 163.552 19.7863C163.396 19.9996 163.229 20.2102 162.919 20.1809C162.709 20.1622 162.526 20.0956 162.421 19.8929C162.313 19.6877 162.447 19.5464 162.553 19.4077C163.423 18.2374 163.792 16.9071 163.827 15.4755C163.838 15.0597 163.916 14.7451 164.412 14.7531C164.934 14.7611 164.967 15.1156 164.918 15.5129C164.91 15.5715 164.918 15.6328 164.918 15.8488L164.915 15.8461Z" fill="#29255F"/>
<path d="M154.239 15.2196C154.231 15.0144 154.371 14.7611 154.788 14.7504C155.2 14.7424 155.367 14.9717 155.367 15.3556C155.362 16.6326 155.648 17.8509 156.187 19.0079C156.332 19.3225 156.397 19.5944 156.014 19.7517C155.664 19.8956 155.381 19.781 155.214 19.4371C154.737 18.4561 154.446 17.4243 154.328 16.342C154.292 16.0247 154.279 15.7048 154.241 15.2196H154.239Z" fill="#29255F"/>
<path d="M169.41 21.4418C169.361 21.5485 169.321 21.6631 169.259 21.7617C168.838 22.4442 168.364 23.0867 167.815 23.6705C167.634 23.8625 167.432 23.9531 167.168 23.8865C166.767 23.7852 166.629 23.4866 166.901 23.1827C167.437 22.5828 167.917 21.9484 168.335 21.2632C168.51 20.9753 168.79 20.9566 169.081 21.0366C169.269 21.0899 169.366 21.2419 169.41 21.4392V21.4418Z" fill="#29255F"/>
<path d="M168.963 24.9262C168.777 24.8702 168.551 24.8755 168.462 24.6543C168.386 24.4677 168.456 24.3077 168.586 24.1637C169.081 23.6119 169.529 23.0254 169.927 22.4043C170.146 22.063 170.472 21.9804 170.808 22.199C171.172 22.4336 170.967 22.7108 170.8 22.9694C170.42 23.5559 169.989 24.1051 169.526 24.6329C169.37 24.8116 169.195 24.9155 168.96 24.9289L168.963 24.9262Z" fill="#29255F"/>
<path d="M152.959 24.6702C152.94 24.8195 152.876 24.9421 152.703 25.0168C152.461 25.1208 152.221 25.1394 152.024 24.9608C151.582 24.5529 151.205 24.0864 150.863 23.5932C150.761 23.4439 150.774 23.2946 150.89 23.1533C151.033 22.9827 151.216 22.9321 151.431 22.9587C151.669 22.9907 152.954 24.4143 152.962 24.6729L152.959 24.6702Z" fill="#2A2660"/>
<path d="M166.529 21.0046C166.745 21.0046 166.912 21.0819 167.033 21.2712C167.144 21.4472 167.052 21.5831 166.958 21.7058C166.723 22.0017 166.484 22.2949 166.228 22.5722C165.964 22.8574 165.632 22.8334 165.371 22.6122C165.075 22.3589 165.296 22.1243 165.49 21.9057C165.675 21.6978 165.848 21.4765 166.015 21.2552C166.147 21.082 166.317 21.0046 166.529 21.0046Z" fill="#2A2660"/>
<path d="M62.7406 11.6127C61.6037 4.92128 56.5547 0.506542 49.6979 0.365249C46.4325 0.298601 43.1644 0.354585 39.8963 0.327926C39.4356 0.32526 39.3359 0.439894 39.3359 0.8851C39.3548 5.31317 39.3467 9.7439 39.3467 14.1746C39.3467 18.6054 39.3521 22.9935 39.3359 27.4029C39.3359 27.8561 39.4275 28.008 39.9233 28.0027C42.6633 27.976 45.4033 27.9787 48.1406 27.9947C49.5443 28.0027 50.9372 27.9174 52.3113 27.6428C56.9454 26.7177 60.3724 24.3477 61.9539 19.7677C62.8726 17.1098 63.2121 14.4172 62.7352 11.618L62.7406 11.6127ZM56.3769 17.9416C55.1968 20.6101 53.0549 22.0204 50.1505 22.351C48.6121 22.5243 47.0683 22.4016 45.5299 22.4523C45.0423 22.4683 45.1501 22.151 45.1474 21.8924C45.1447 19.3065 45.1474 16.7206 45.1474 14.1373C45.1474 11.5727 45.1608 9.00545 45.1339 6.44085C45.1285 5.95299 45.2794 5.84635 45.7401 5.86501C47.3809 5.92633 49.0324 5.73172 50.6597 6.03829C53.9171 6.65145 56.3014 9.12541 56.8807 12.4631C57.2067 14.3319 57.1528 16.1901 56.3769 17.9442V17.9416Z" fill="#28245E"/>
</g>
<defs>
<clipPath id="clip0_392_1275">
<rect width="200" height="28" fill="white"/>
</clipPath>
</defs>
</svg>
