<svg width="250" height="70" viewBox="0 0 250 70" fill="none" xmlns="http://www.w3.org/2000/svg">
<g clip-path="url(#clip0_392_1439)">
<path fill-rule="evenodd" clip-rule="evenodd" d="M59.4177 29.4723C60.0753 29.6188 60.7567 29.704 61.4518 29.7245C60.7602 29.7142 60.0821 29.6563 59.4177 29.5541C59.2644 29.5302 59.1077 29.5064 58.9543 29.4757C58.8862 29.4621 58.818 29.4519 58.7499 29.4348C58.6954 29.4246 58.6375 29.411 58.5795 29.4008C58.5318 29.3906 58.4875 29.3803 58.4398 29.3701C58.3581 29.3531 58.2797 29.336 58.1979 29.3156C58.1502 29.3054 58.0991 29.2917 58.0514 29.2815C57.9765 29.2645 57.9015 29.244 57.8231 29.2236C57.8231 29.2236 57.8197 29.2236 57.8163 29.2236C57.7686 29.21 57.7243 29.1998 57.6766 29.1861C57.6664 29.1861 57.6596 29.1827 57.6494 29.1793C57.6289 29.1759 57.6085 29.1691 57.5915 29.1657C56.7567 28.934 55.9492 28.6342 55.1757 28.273C54.9849 28.1844 54.7975 28.089 54.6136 27.9936C54.6033 27.9902 54.5897 27.9834 54.5795 27.9766C54.5011 27.9357 54.4228 27.8914 54.3444 27.8505C54.2694 27.8096 54.1979 27.7687 54.1229 27.7278C54.0991 27.7142 54.0752 27.7006 54.0514 27.687C54.0411 27.6801 54.0275 27.6733 54.0173 27.6665C54.0071 27.6631 54.0003 27.6563 53.99 27.6529C53.9253 27.6154 53.8606 27.5779 53.7992 27.5404C53.7788 27.5302 53.7618 27.5166 53.7413 27.5064C53.6595 27.4587 53.5812 27.4076 53.4994 27.3565C53.4892 27.3496 53.4824 27.3462 53.4721 27.3394C53.404 27.2951 53.3325 27.2508 53.2643 27.2065C53.2405 27.1929 53.2166 27.1759 53.1928 27.1588C53.1723 27.1452 53.1519 27.135 53.1348 27.1214C53.0803 27.0839 53.0258 27.0464 52.9679 27.0089C52.8589 26.934 52.7498 26.859 52.6442 26.7806C52.5829 26.7363 52.5215 26.6921 52.4636 26.6478C52.4398 26.6307 52.4193 26.6137 52.3989 26.6001C52.3205 26.5421 52.2456 26.4808 52.1672 26.4229C52.1638 26.4195 52.157 26.4161 52.1502 26.4093C52.065 26.3411 51.9832 26.2764 51.9014 26.2082C51.8162 26.1401 51.7345 26.0685 51.6527 26.0004C51.6425 25.9936 51.6357 25.9834 51.6254 25.9765C51.5641 25.922 51.5028 25.8709 51.4415 25.813C51.421 25.7925 51.3972 25.7755 51.3767 25.7551C51.3018 25.6869 51.2268 25.6154 51.1518 25.5472C51.0701 25.4723 50.9917 25.3939 50.9099 25.3155C50.8213 25.2304 50.7362 25.1418 50.651 25.0566C50.5828 24.985 50.5113 24.9135 50.4431 24.8385C50.392 24.7806 50.3375 24.7227 50.283 24.6648C50.2489 24.6273 50.2149 24.5898 50.1842 24.5523C50.1229 24.4842 50.0615 24.4126 50.0002 24.3411C50.0002 24.3411 49.9968 24.3377 49.9934 24.3343C49.9218 24.2525 49.8537 24.1707 49.7856 24.0855C49.714 24.0004 49.6459 23.9118 49.5777 23.8266C49.5096 23.738 49.4414 23.6528 49.3767 23.5642C49.3085 23.4757 49.2438 23.3871 49.1791 23.2951C48.7532 21.9969 48.5215 20.6068 48.5215 19.1621C48.5215 12.4942 53.4551 6.98139 59.8709 6.07507V8.75313C54.9202 9.6356 51.1655 13.9593 51.1655 19.1621C51.1655 21.353 51.8333 23.3905 52.9747 25.077C54.1093 26.7534 55.7107 28.089 57.5949 28.8897C58.1775 29.1384 58.7908 29.3394 59.4211 29.4791L59.4177 29.4723Z" fill="#28255F"/>
<path fill-rule="evenodd" clip-rule="evenodd" d="M74.9543 19.1519C74.9543 20.5932 74.7226 21.9833 74.2967 23.2848C74.2388 23.3666 74.1774 23.4484 74.1161 23.5302C74.1025 23.5472 74.0888 23.5676 74.0752 23.5847C74.0173 23.663 73.9594 23.738 73.898 23.8164C73.898 23.8164 73.898 23.8198 73.8946 23.8232C73.8265 23.9084 73.7583 23.9935 73.6902 24.0787C73.6902 24.0821 73.6834 24.0889 73.68 24.0923C73.6152 24.1741 73.5471 24.2525 73.4789 24.3309C73.4176 24.4024 73.3563 24.4705 73.295 24.5421C73.2643 24.5762 73.2336 24.6102 73.203 24.6409C73.1416 24.7091 73.0803 24.7738 73.019 24.8385C72.9611 24.9033 72.8997 24.9646 72.8384 25.0293C72.8043 25.0668 72.7668 25.1043 72.7294 25.1418C72.6135 25.261 72.4943 25.3769 72.375 25.4893C72.3375 25.5234 72.3035 25.5574 72.2694 25.5881C72.1433 25.704 72.0173 25.8198 71.8878 25.9322C71.8537 25.9629 71.8196 25.9936 71.7822 26.0242C71.6868 26.106 71.588 26.1878 71.4925 26.2661C71.4448 26.307 71.3971 26.3445 71.346 26.382C71.254 26.4569 71.1586 26.5285 71.0632 26.6035C71.0326 26.6273 71.0019 26.6512 70.9678 26.675C70.9065 26.7227 70.8452 26.767 70.7839 26.8113C70.76 26.8283 70.7396 26.8454 70.7157 26.859C70.6407 26.9101 70.5658 26.9646 70.4908 27.0157C70.4908 27.0157 70.484 27.0191 70.4806 27.0225C70.392 27.0805 70.3068 27.1418 70.2183 27.1997C70.1842 27.2236 70.1501 27.244 70.116 27.2679C70.0615 27.3019 70.007 27.336 69.9525 27.3701C69.8639 27.4246 69.7719 27.4825 69.6833 27.537C69.5913 27.5915 69.4993 27.6461 69.4107 27.6972C69.3188 27.7483 69.2268 27.7994 69.1314 27.8505C69.0632 27.888 68.9951 27.922 68.9303 27.9595C68.9235 27.9629 68.9167 27.9663 68.9099 27.9697C68.8826 27.9834 68.8554 28.0004 68.8281 28.014C68.7736 28.0413 68.7157 28.072 68.6612 28.0992C68.6407 28.1094 68.6203 28.1197 68.5998 28.1299C68.5862 28.1367 68.5726 28.1435 68.5589 28.1503C68.5589 28.1503 68.5521 28.1503 68.5487 28.1537C68.4772 28.1878 68.409 28.2219 68.3375 28.2559C68.3102 28.2696 68.283 28.2832 68.2557 28.2934C68.1807 28.3309 68.1058 28.365 68.0274 28.399C68.0172 28.4025 68.0036 28.4093 67.9899 28.4127C67.9014 28.4536 67.8094 28.491 67.7174 28.5319C67.7106 28.5319 67.7037 28.5387 67.6935 28.5422C67.5981 28.583 67.5027 28.6205 67.4073 28.658C67.4073 28.658 67.4005 28.658 67.3971 28.658C67.2983 28.6989 67.1961 28.7364 67.0973 28.7738C66.8962 28.8488 66.6952 28.9169 66.4908 28.9817C66.2863 29.0464 66.0785 29.1077 65.8707 29.1657C65.7957 29.1861 65.7207 29.2066 65.6458 29.227C65.5708 29.2474 65.4959 29.2645 65.4209 29.2849C65.346 29.302 65.271 29.3224 65.196 29.3394C65.0427 29.3735 64.8928 29.4076 64.7395 29.4348C64.6645 29.4485 64.5862 29.4655 64.5078 29.4791C64.4294 29.4928 64.3545 29.5064 64.2761 29.52C64.1977 29.5336 64.1228 29.5439 64.0444 29.5575C64.0035 29.5643 63.9626 29.5677 63.9217 29.5745C63.8809 29.5814 63.84 29.5848 63.7991 29.5916C63.765 29.595 63.7309 29.6018 63.6935 29.6052C63.6287 29.612 63.564 29.6222 63.4958 29.6291C63.4516 29.6325 63.4073 29.6359 63.363 29.6427H63.3562C63.3221 29.6461 63.288 29.6495 63.2573 29.6529C63.2437 29.6529 63.2301 29.6529 63.213 29.6563C63.1756 29.6597 63.1381 29.6631 63.0972 29.6665C63.0836 29.6665 63.0665 29.6665 63.0529 29.6699C63.0529 29.6699 63.0461 29.6699 63.0427 29.6699C63.012 29.6699 62.9814 29.6733 62.9507 29.6768C62.9302 29.6768 62.9132 29.6802 62.8928 29.6802C62.8894 29.6802 62.886 29.6802 62.8825 29.6802C62.8723 29.6802 62.8655 29.6802 62.8553 29.6802C62.8042 29.6836 62.7497 29.687 62.6952 29.6904C62.6815 29.6904 62.6645 29.6904 62.6475 29.6938C62.61 29.6938 62.5725 29.6972 62.5384 29.6972C62.4635 29.7006 62.3885 29.704 62.3135 29.7074C62.2181 29.7074 62.1227 29.7142 62.0273 29.7142C62.7156 29.6972 63.3902 29.612 64.041 29.4655C64.6747 29.3258 65.2846 29.1282 65.8673 28.8795C67.748 28.0822 69.3528 26.7534 70.4874 25.0838C71.6425 23.3905 72.3137 21.3461 72.3137 19.1417C72.3137 18.6919 72.2864 18.2524 72.2319 17.8163H74.8929C74.9372 18.2524 74.9577 18.6953 74.9577 19.1417L74.9543 19.1519Z" fill="#28255F"/>
<path d="M65.1927 5.12097H61.7344V8.57928H65.1927V5.12097Z" fill="#D0212F"/>
<path d="M68.6515 9.44128H66.0586V12.0342H68.6515V9.44128Z" fill="#D0212F"/>
<path d="M71.2441 6.84839H69.5166V8.57584H71.2441V6.84839Z" fill="#D0212F"/>
<path fill-rule="evenodd" clip-rule="evenodd" d="M67.7861 5.12108V2.5282H70.3824V5.12108" fill="#28255F"/>
<path d="M72.9716 0H71.2441V1.72745H72.9716V0Z" fill="#28255F"/>
<path fill-rule="evenodd" clip-rule="evenodd" d="M71.8779 13.3188V11.0598H74.1369V13.3188" fill="#D0212F"/>
<path d="M74.8864 6.96094H73.3838V8.46351H74.8864V6.96094Z" fill="#28255F"/>
<path d="M74.8898 14.8213H73.3838V16.3273H74.8898V14.8213Z" fill="#28255F"/>
<path fill-rule="evenodd" clip-rule="evenodd" d="M74.1126 23.5302C74.099 23.5472 74.0854 23.5643 74.0717 23.5847C74.0138 23.6631 73.9559 23.738 73.8946 23.8164C73.8946 23.8164 73.8911 23.8198 73.8911 23.8232C73.823 23.9084 73.7549 23.9936 73.6867 24.0787C73.6867 24.0856 73.6799 24.089 73.6765 24.0924C73.6118 24.1741 73.5436 24.2525 73.4755 24.3309C73.4141 24.4024 73.3528 24.4706 73.2915 24.5421C73.2608 24.5762 73.2301 24.6103 73.1995 24.6443C73.1382 24.7125 73.0768 24.7772 73.0155 24.8454C72.9576 24.9101 72.8962 24.9714 72.8349 25.0362C72.8008 25.0737 72.7634 25.1111 72.7259 25.1486C72.61 25.2679 72.4908 25.3837 72.3715 25.4961C72.3375 25.5302 72.3 25.5643 72.2659 25.595C72.1398 25.7108 72.0138 25.8266 71.8843 25.9391C71.8502 25.9697 71.8162 26.0004 71.7787 26.0311C71.6833 26.1128 71.5845 26.1946 71.4891 26.273C71.4414 26.3105 71.3937 26.3514 71.3426 26.3888C71.2506 26.4638 71.1552 26.5353 71.0598 26.6103C71.0291 26.6341 70.9984 26.658 70.9644 26.6818C70.903 26.7261 70.8417 26.7738 70.7804 26.8181C70.7599 26.8352 70.7361 26.8522 70.7122 26.8658C70.6373 26.9169 70.5623 26.9715 70.4908 27.0226C70.4874 27.0226 70.4839 27.026 70.4805 27.0294V12.9576H65.8604V29.1793C65.7854 29.1998 65.7105 29.2202 65.6355 29.2407C65.5605 29.2611 65.4856 29.2781 65.4106 29.2986C65.3357 29.3156 65.2607 29.3361 65.1857 29.3531C65.0324 29.3872 64.8825 29.4212 64.7292 29.4485C64.6542 29.4655 64.5759 29.4792 64.4975 29.4928C64.4396 29.503 64.3816 29.5132 64.3237 29.5235V29.1418H64.0341V16.7703H59.4139V29.486C59.5128 29.5064 59.615 29.5201 59.7138 29.5371V29.5916C59.615 29.5848 59.5128 29.5814 59.4139 29.5678C59.2572 29.5439 59.1039 29.5201 58.9506 29.4894C58.4872 29.4042 58.034 29.2986 57.5877 29.1725C57.1788 29.0601 56.7802 28.9306 56.3849 28.7875C56.7768 28.9306 57.1788 29.0601 57.5877 29.1725V23.0293H52.9675V27.0158C52.8585 26.9408 52.7529 26.8658 52.6438 26.7875C52.5825 26.7432 52.5212 26.6989 52.4633 26.6546C52.4428 26.6376 52.419 26.6205 52.3985 26.6069C52.3201 26.549 52.2452 26.4876 52.1702 26.4297C52.1634 26.4263 52.16 26.4229 52.1532 26.4161C52.068 26.3514 51.9862 26.2832 51.9045 26.2117C51.8193 26.1435 51.7375 26.0754 51.6557 26.0038C51.6455 25.997 51.6387 25.9902 51.6285 25.98C51.5672 25.9255 51.5058 25.8709 51.4445 25.8164C51.4241 25.796 51.4002 25.7789 51.3798 25.7585C51.3048 25.6904 51.2264 25.6222 51.1549 25.5507C51.0731 25.4757 50.9947 25.3973 50.913 25.319C50.8244 25.2338 50.7392 25.1486 50.654 25.06C50.5825 24.9885 50.5143 24.9135 50.4462 24.842C50.3917 24.784 50.3406 24.7261 50.2861 24.6682C50.252 24.6307 50.2179 24.5932 50.1872 24.5558C50.1225 24.4876 50.0612 24.4161 49.9998 24.3445C49.9998 24.3445 49.9964 24.3411 49.993 24.3377C49.9215 24.2559 49.8533 24.1741 49.7852 24.089C49.7136 24.0038 49.6455 23.9152 49.5774 23.83C49.5092 23.7414 49.4411 23.6563 49.3763 23.5677C49.3082 23.4791 49.2434 23.3905 49.1787 23.2985C49.9181 25.5473 51.2435 27.5268 52.9743 29.0601C53.2469 29.302 53.5263 29.5303 53.8193 29.7483C56.0272 31.4042 58.77 32.3821 61.7411 32.3821C64.7121 32.3821 67.4549 31.4008 69.6628 29.7483C69.9456 29.5371 70.2216 29.3122 70.4874 29.0771C72.2284 27.5405 73.5572 25.5541 74.3 23.2985C74.2421 23.3803 74.1808 23.462 74.1194 23.5438L74.1126 23.5302ZM53.2639 27.2032C53.298 27.2236 53.3287 27.2474 53.3628 27.2679C53.3287 27.2474 53.2946 27.2236 53.2639 27.2032ZM54.0101 27.6631C54.0101 27.6631 53.9965 27.6563 53.9897 27.6495C53.9829 27.6461 53.9726 27.6393 53.9658 27.6359C53.9795 27.6461 53.9965 27.6529 54.0101 27.6631C54.0101 27.6631 54.0135 27.6631 54.0169 27.6631C54.0203 27.6631 54.0238 27.6665 54.0272 27.6699C54.0203 27.6699 54.0169 27.6631 54.0101 27.6597V27.6631ZM67.765 28.5047C67.8365 28.474 67.9115 28.4434 67.9831 28.4093C67.9865 28.4093 67.9933 28.4059 67.9967 28.4025C67.9183 28.4366 67.8434 28.4706 67.765 28.5047ZM68.5487 28.1469C68.4771 28.1844 68.4021 28.2185 68.3306 28.2526C68.3033 28.2662 68.2761 28.2798 68.2488 28.29C68.1841 28.3207 68.1159 28.3514 68.0478 28.382C68.2182 28.3071 68.3851 28.2287 68.5487 28.1469C68.5487 28.1469 68.5487 28.1469 68.5521 28.1469C68.5521 28.1469 68.5589 28.1469 68.5623 28.1435C68.5589 28.1435 68.5521 28.1469 68.5487 28.1504V28.1469ZM69.1279 27.8471C69.07 27.8778 69.012 27.9119 68.9507 27.9425C69.1006 27.8642 69.2505 27.7824 69.397 27.6972C69.3085 27.7483 69.2165 27.7994 69.1245 27.8471H69.1279ZM70.2182 27.1929C70.1569 27.2338 70.0921 27.2747 70.0274 27.3156C70.0989 27.2713 70.1705 27.2236 70.242 27.1759C70.2318 27.1827 70.225 27.1861 70.2148 27.1929H70.2182Z" fill="#D0212F"/>
<path d="M0 7.3595H10.0478C15.915 7.3595 19.4619 10.8042 19.4619 15.8605V15.932C19.4619 21.6561 15.036 24.5727 9.51972 24.5727H5.41064V31.9493H0V7.3595ZM9.69689 19.7617C12.4022 19.7617 13.9832 18.1467 13.9832 16.0376V15.9661C13.9832 13.5436 12.2966 12.242 9.59127 12.242H5.41064V19.7583H9.69689V19.7617Z" fill="#D0212F"/>
<path d="M23.3633 7.3595H34.6036C37.7314 7.3595 40.1199 8.20448 41.769 9.85357C43.1727 11.2607 43.8746 13.1211 43.8746 15.4754V15.547C43.8746 19.5164 41.7315 22.0105 38.6071 23.1689L44.614 31.9493H38.2902L33.0227 24.082H28.7739V31.9493H23.3633V7.3595ZM34.2527 19.3051C36.9205 19.3051 38.3959 17.9354 38.3959 15.8264V15.7548C38.3959 13.4005 36.8149 12.242 34.1471 12.242H28.7739V19.3017H34.2527V19.3051Z" fill="#D0212F"/>
<path d="M77.541 28.6136L80.9482 24.8214C82.3554 26.3649 83.7217 27.2814 85.4457 27.2814C87.5173 27.2814 88.7473 26.0514 88.7473 23.2064V7.3595H94.2976V23.4483C94.2976 26.3989 93.4901 28.508 91.9773 30.0174C90.4679 31.5268 88.2533 32.3002 85.5854 32.3002C81.7557 32.3002 79.2276 30.6136 77.541 28.6102V28.6136Z" fill="#D0212F"/>
<path d="M99.5171 7.3595H118.062V12.1705H104.89V17.1586H116.482V21.9696H104.89V27.1315H118.236V31.9425H99.5137V7.3595H99.5171Z" fill="#D0212F"/>
<path d="M122.142 19.7242V19.6527C122.142 12.6611 127.409 6.93701 134.963 6.93701C139.566 6.93701 142.411 8.48388 144.656 10.7292L141.215 14.6986C139.283 12.978 137.423 11.9252 134.929 11.9252C130.786 11.9252 127.798 15.3664 127.798 19.5811V19.6527C127.798 23.8674 130.714 27.3802 134.929 27.3802C137.74 27.3802 139.46 26.2933 141.392 24.5011L144.837 27.9799C142.309 30.6852 139.532 32.3718 134.755 32.3718C127.518 32.3718 122.145 26.7874 122.145 19.7276L122.142 19.7242Z" fill="#D0212F"/>
<path d="M156.22 12.3476H148.738V7.3595H169.113V12.3476H161.631V31.9493H156.22V12.3476Z" fill="#D0212F"/>
<path d="M205.029 49.2068L200.804 50.246L199.696 45.8848L206.654 43.8098H210.289V68.2156H205.029V49.2102V49.2068Z" fill="#D0212F"/>
<path d="M215.346 56.1643V56.0961C215.346 49.0705 219.673 43.5645 226.147 43.5645C232.62 43.5645 236.876 48.9649 236.876 56.0246V56.0927C236.876 63.1184 232.549 68.6244 226.075 68.6244C219.601 68.6244 215.346 63.224 215.346 56.1643ZM231.407 56.1643V56.0961C231.407 51.7009 229.261 48.3754 226.078 48.3754C222.896 48.3754 220.818 51.5952 220.818 56.0246V56.0927C220.818 60.5221 222.93 63.8134 226.15 63.8134C229.37 63.8134 231.411 60.5936 231.411 56.1643H231.407Z" fill="#D0212F"/>
<path d="M244.739 49.2068L240.515 50.246L239.407 45.8848L246.365 43.8098H250V68.2156H244.739V49.2102V49.2068Z" fill="#D0212F"/>
<path d="M0 44.0381H5.82972L12.2932 54.4369L18.7566 44.0381H24.5864V68.6279H19.2132V52.5765L12.2932 63.0775H12.1535L5.30501 52.6822V68.6279H0V44.0381Z" fill="#28255F"/>
<path d="M38.9237 43.8608H43.9119L54.4503 68.6244H48.7944L46.5456 63.1081H36.1468L33.8981 68.6244H28.3818L38.9203 43.8608H38.9237ZM44.6137 58.3346L41.3462 50.3618L38.0787 58.3346H44.6103H44.6137Z" fill="#28255F"/>
<path d="M58.2461 44.0381H69.4865C72.6143 44.0381 75.0027 44.8797 76.6518 46.5322C78.0556 47.9359 78.7609 49.7997 78.7609 52.154V52.2256C78.7609 56.195 76.6177 58.689 73.4933 59.8475L79.5002 68.6279H73.1765L67.9089 60.7606H63.6601V68.6279H58.2495V44.0381H58.2461ZM69.1355 55.9803C71.8068 55.9803 73.2821 54.6106 73.2821 52.5016V52.43C73.2821 50.0756 71.7011 48.9172 69.0333 48.9172H63.6601V55.9769H69.1389L69.1355 55.9803Z" fill="#28255F"/>
<path d="M83.6465 44.0381H89.0571V54.7878L99.0334 44.0381H105.568L95.5581 54.4709L106.025 68.6279H99.5274L91.9055 58.1609L89.0605 61.1116V68.6279H83.6499V44.0381H83.6465Z" fill="#28255F"/>
<path d="M94.4307 53.8372H102.264V58.6481H94.4307" fill="#28255F"/>
<path d="M115.991 49.0262H108.509V44.0381H128.884V49.0262H121.402V68.6279H115.991V49.0262Z" fill="#28255F"/>
<path d="M133.276 44.0381H138.687V68.6279H133.276V44.0381Z" fill="#28255F"/>
<path d="M144.833 44.0381H149.822L161.341 59.1763V44.0381H166.68V68.6279H162.077L150.169 52.9956V68.6279H144.83V44.0381H144.833Z" fill="#28255F"/>
<path d="M171.499 56.4027V56.3312C171.499 49.3396 176.943 43.6155 184.388 43.6155C188.78 43.6155 191.519 44.8114 194.047 46.9886L190.64 51.0977C188.78 49.5168 187.022 48.6036 184.211 48.6036C180.275 48.6036 177.151 52.0824 177.151 56.263V56.3346C177.151 60.8321 180.241 64.1336 184.599 64.1336C186.603 64.1336 188.323 63.643 189.693 62.6583V59.1455H184.248V54.4742H194.926V65.1524C192.398 67.2955 188.92 69.0502 184.422 69.0502C176.766 69.0502 171.495 63.7112 171.495 56.4061L171.499 56.4027Z" fill="#28255F"/>
<path d="M102.264 51.2102L108.509 56.43L102.264 61.2785V51.2102Z" fill="#28255F"/>
</g>
<defs>
<clipPath id="clip0_392_1439">
<rect width="250" height="69.0469" fill="white"/>
</clipPath>
</defs>
</svg>
