<svg width="251" height="80" viewBox="0 0 251 80" fill="none" xmlns="http://www.w3.org/2000/svg">
<g clip-path="url(#clip0_146_298)">
<path d="M56.9531 46.6308V0H92.1615V9.12053H67.1538V18.5864H89.1616V27.7095H67.1538V37.505H92.4968V46.6308H56.9531Z" fill="white"/>
<path d="M129.307 16.055C129.307 19.9805 126.442 22.6443 121.435 22.6443H111.037V9.25813H121.24C126.242 9.25813 129.309 11.522 129.309 15.9226V16.055H129.307ZM137.623 41.5344L133.653 35.7344L129.71 29.9786C135.647 27.7744 139.71 23.0519 139.71 15.5228V15.3878C139.71 5.79477 133.11 0 122.101 0H100.764V42.4872C100.764 45.6234 103.311 46.6308 106.449 46.6308H111.035V31.7051H119.101L127.383 44.0579L127.526 44.2708C128.535 45.6961 130.196 46.6308 132.073 46.6308H141.111L137.623 41.5344Z" fill="white"/>
<path d="M163.182 27.0734L169.34 12.0543L175.498 27.0734H163.182ZM174.173 0H164.773L149.628 35.5501L146.305 43.3439L144.904 46.6308H151.468C153.829 46.6308 155.854 45.1976 156.719 43.1596L156.727 43.1414L159.545 36.2433H179.146L183.38 46.6308H194.044L174.173 0Z" fill="white"/>
<path d="M193.005 55.38C198.03 55.38 203.055 55.38 208.077 55.38C208.849 55.38 209.616 55.4034 210.378 55.5513C211.704 55.811 212.886 56.3328 213.83 57.3298C214.157 57.6751 214.433 58.0567 214.651 58.4747C215.14 59.4093 215.447 60.3985 215.561 61.45C215.655 62.3145 215.691 63.1816 215.691 64.054C215.686 69.0725 215.689 74.091 215.691 79.1095C215.691 80.0779 215.735 79.9974 214.805 79.9974C213.786 79.9974 212.764 80 211.745 79.9948C211.371 79.9948 211.319 79.9325 211.303 79.5638C211.295 79.3665 211.301 79.1666 211.301 78.9667C211.301 74.1221 211.303 69.2776 211.298 64.433C211.298 63.8619 211.262 63.2907 211.217 62.7221C211.168 62.0938 210.952 61.5123 210.632 60.9697C210.219 60.2713 209.59 59.8403 208.823 59.6274C208.371 59.5028 207.9 59.4301 207.425 59.4301C204.539 59.4327 201.654 59.4301 198.768 59.4301C198.643 59.4301 198.519 59.4353 198.396 59.4457C198.287 59.4561 198.209 59.5262 198.204 59.6326C198.188 59.8792 198.181 60.1285 198.181 60.3751C198.181 65.8402 198.181 71.3078 198.181 76.7729C198.181 77.5933 198.181 78.4137 198.181 79.2315C198.181 79.4054 198.178 79.5794 198.16 79.7507C198.147 79.8935 198.051 79.9636 197.913 79.9818C197.863 79.987 197.814 79.9896 197.765 79.9896C196.572 79.9896 195.376 79.9948 194.183 79.9896C193.8 79.9896 193.769 79.9455 193.756 79.5508C193.751 79.3535 193.756 79.1536 193.756 78.9537C193.756 72.7409 193.756 66.5308 193.756 60.318C193.756 59.3263 193.842 59.4249 192.891 59.4249C189.111 59.4249 185.328 59.4249 181.549 59.4249C180.589 59.4249 180.647 59.3444 180.647 60.2946C180.647 66.5308 180.647 72.7669 180.647 79.003C180.647 80.1012 180.745 79.987 179.635 79.9896C178.64 79.9922 177.647 79.9948 176.651 79.9896C176.274 79.9896 176.222 79.9273 176.207 79.5612C176.199 79.3873 176.207 79.2133 176.207 79.0394C176.207 71.461 176.207 63.8826 176.207 56.3042C176.207 55.2735 176.126 55.3748 177.119 55.3748C182.417 55.3748 187.715 55.3748 193.013 55.3748L193.005 55.38Z" fill="white"/>
<path d="M52.2295 55.3799C55.8845 55.3799 59.5421 55.3799 63.197 55.3799C64.1277 55.3799 64.0419 55.3021 64.0419 56.2159C64.0419 57.135 64.0471 58.0541 64.0419 58.9731C64.0393 59.3963 64.0055 59.4197 63.5636 59.4301C63.366 59.4353 63.1658 59.4301 62.9657 59.4301C56.3498 59.4301 49.7339 59.4301 43.1181 59.4301C42.619 59.4301 42.1276 59.4638 41.6363 59.5599C40.3054 59.8195 39.4839 60.6139 39.107 61.8991C38.9146 62.5507 38.8704 63.2205 38.8678 63.8904C38.8548 66.3983 38.8548 68.9089 38.8678 71.4168C38.8704 72.084 38.912 72.7539 39.0966 73.4081C39.4605 74.6932 40.2612 75.5111 41.5817 75.8044C42.0964 75.9187 42.6138 75.9446 43.1389 75.9446C49.7287 75.942 56.3212 75.942 62.9111 75.9446C63.2542 75.9446 63.678 75.8044 63.9249 76.0225C64.2161 76.2769 64.0315 76.7261 64.0393 77.0896C64.0601 77.91 64.0497 78.7304 64.0419 79.5482C64.0393 79.9454 63.9951 79.9844 63.626 79.9973C63.4518 80.0025 63.2776 79.9973 63.1034 79.9973C56.0898 79.9973 49.0763 79.9947 42.0627 79.9999C41.1372 79.9999 40.2222 79.9376 39.3253 79.7195C38.1425 79.4314 37.0923 78.8965 36.2552 77.9879C35.5664 77.2401 35.1452 76.3496 34.8593 75.3864C34.5499 74.3531 34.4564 73.2887 34.4512 72.2191C34.4382 69.1893 34.4382 66.1569 34.4512 63.1271C34.4564 62.0574 34.5525 60.993 34.8645 59.9597C35.1634 58.9757 35.6002 58.0696 36.3202 57.3089C37.2483 56.3302 38.4129 55.8213 39.7075 55.5617C40.4665 55.4085 41.236 55.3748 42.0081 55.3748C45.4161 55.3799 48.8215 55.3748 52.2295 55.3748V55.3799Z" fill="white"/>
<path d="M85.5068 55.3981C85.6341 55.2787 85.7381 55.3774 85.8317 55.4449C86.5804 55.9771 87.3265 56.5119 88.0725 57.0467C90.1886 58.5655 92.3072 60.0817 94.4232 61.6031C96.7005 63.2387 98.9751 64.8795 101.252 66.5152C102.18 67.1824 103.111 67.8418 104.039 68.5039C104.2 68.6181 104.359 68.7401 104.517 68.8596C104.665 68.9712 104.741 69.1192 104.73 69.3087C104.725 69.4074 104.73 69.506 104.73 69.6073C104.73 72.785 104.73 75.9602 104.73 79.138C104.73 79.8675 104.704 79.8753 104.044 79.5768C101.738 78.5331 99.4326 77.492 97.1268 76.4509C94.912 75.4488 92.6971 74.444 90.4797 73.4471C88.8264 72.7046 87.1705 71.9698 85.5172 71.2299C85.2546 70.9443 85.291 70.5834 85.291 70.2407C85.2858 65.6273 85.2858 61.0138 85.291 56.3977C85.291 56.0498 85.2806 55.6993 85.5094 55.4007L85.5068 55.3981Z" fill="#90183A"/>
<path d="M85.5053 55.3981C85.5131 55.6214 85.5313 55.8421 85.5313 56.0653C85.5313 60.9203 85.5313 65.7752 85.5313 70.6328C85.5313 70.8301 85.5209 71.03 85.5157 71.2273C84.6943 71.6946 83.8078 72.0217 82.9526 72.4138C81.2135 73.2082 79.464 73.9793 77.7223 74.7659C75.9572 75.563 74.1947 76.3678 72.4322 77.1648C70.6463 77.9749 68.8578 78.7797 67.0693 79.5871C66.9575 79.639 66.8405 79.6858 66.7236 79.7247C66.591 79.7689 66.461 79.691 66.4506 79.5612C66.4376 79.3872 66.435 79.2133 66.435 79.0393C66.435 75.9109 66.435 72.7798 66.435 69.6514C66.435 69.6254 66.4376 69.602 66.435 69.5761C66.3726 69.1607 66.5338 68.8673 66.8899 68.644C67.2877 68.3922 67.6646 68.104 68.0467 67.8314C70.207 66.2841 72.3672 64.7367 74.5274 63.1894C77.2726 61.2214 80.0177 59.2561 82.7628 57.2882C83.5089 56.7533 84.2472 56.2055 84.9958 55.6707C85.1518 55.5591 85.2844 55.3877 85.5079 55.3955L85.5053 55.3981Z" fill="#DA1F35"/>
<path d="M214.426 55.5097C214.626 55.3436 214.779 55.3799 214.922 55.3799C216.438 55.3773 217.956 55.3877 219.472 55.3721C219.848 55.3669 220.121 55.476 220.392 55.7486C223.727 59.0847 227.075 62.4079 230.418 65.7336C230.964 66.2763 231.502 66.8267 232.046 67.3693C232.256 67.5796 232.474 67.7821 232.695 67.9846C232.802 68.0806 232.924 68.0728 233.031 67.9794C233.161 67.8651 233.291 67.7483 233.413 67.6263C235.558 65.487 237.7 63.3477 239.842 61.2058C241.685 59.3625 243.528 57.5192 245.368 55.6733C245.553 55.489 245.745 55.3721 246.018 55.3747C247.609 55.3825 249.2 55.3799 250.791 55.3851C250.861 55.3851 250.942 55.3851 250.996 55.5279C250.861 55.6811 250.713 55.8706 250.547 56.0394C246.717 59.8999 242.886 63.7579 239.054 67.6185C237.866 68.8154 236.686 70.0252 235.474 71.2013C235.136 71.5284 235.019 71.8633 235.025 72.3177C235.043 74.553 235.032 76.7884 235.032 79.0237C235.032 80.1089 235.095 79.9947 234.078 79.9973C233.083 79.9999 232.09 80.0025 231.094 79.9973C230.631 79.9947 230.6 79.9609 230.598 79.4755C230.592 78.3331 230.598 77.1908 230.598 76.0484C230.598 74.7322 230.59 73.4159 230.603 72.0996C230.605 71.7517 230.499 71.4999 230.247 71.2506C228.968 70.0018 227.704 68.7375 226.438 67.4757C224.574 65.6194 222.711 63.7579 220.844 61.9042C218.975 60.0479 217.103 58.1968 215.234 56.3431C214.972 56.0809 214.717 55.8109 214.428 55.5149L214.426 55.5097Z" fill="white"/>
<path d="M31.8098 63.7501C31.8124 62.6 31.7162 61.4655 31.477 60.3465C31.2405 59.2353 30.77 58.228 30.0031 57.3764C29.0803 56.3561 27.8949 55.8265 26.5717 55.5616C25.8126 55.4085 25.0432 55.3747 24.2711 55.3747C16.709 55.3773 9.14687 55.3747 1.58477 55.3747C1.3846 55.3747 1.18704 55.3695 0.986872 55.3799C0.750313 55.3903 0.682724 55.4526 0.680125 55.6992C0.674926 56.8182 0.672326 57.9346 0.680125 59.0536C0.680125 59.3443 0.752912 59.4092 1.02327 59.4222C1.22083 59.43 1.421 59.4248 1.62116 59.4274C3.7606 59.4274 5.90003 59.4274 8.03946 59.4274C13.0904 59.4274 18.1387 59.43 23.1897 59.4222C23.7408 59.4222 24.2841 59.4586 24.817 59.5858C25.706 59.7987 26.3975 60.2868 26.8342 61.1072C27.0578 61.5278 27.2034 61.9691 27.2892 62.439C27.4295 63.2023 27.4217 63.9708 27.4191 64.7419C27.4165 65.7778 27.4945 65.6765 26.5119 65.6791C19.6959 65.6791 12.8798 65.6791 6.0638 65.6791C5.64008 65.6791 5.21635 65.6791 4.79522 65.7025C3.94257 65.7544 3.11591 65.9465 2.35684 66.3334C1.05446 66.998 0.394174 68.1377 0.186209 69.5345C-0.102341 71.4609 0.0146387 73.4003 0.077028 75.3371C0.0848266 75.5837 0.129019 75.8303 0.173212 76.077C0.360379 77.1544 0.750313 78.1306 1.62376 78.8524C2.13068 79.2703 2.70518 79.5533 3.33687 79.7221C4.11154 79.9298 4.8992 79.9973 5.69986 79.9947C9.80456 79.9895 13.9093 79.9921 18.014 79.9921C22.3162 79.9921 26.6211 79.9921 30.9233 79.9921C31.867 79.9921 31.802 80.0726 31.802 79.1016C31.802 73.9818 31.7942 68.8647 31.8072 63.7449L31.8098 63.7501ZM27.4165 69.9525C27.4165 71.7906 27.4165 73.6287 27.4165 75.4669C27.4165 75.6642 27.4113 75.8641 27.4035 76.0614C27.3957 76.2094 27.297 76.2821 27.1618 76.2925C26.9876 76.3055 26.8134 76.3029 26.6393 76.3029C20.273 76.3029 13.9067 76.3029 7.54035 76.3029C7.06723 76.3029 6.59931 76.2717 6.13659 76.1523C5.27614 75.9316 4.73023 75.3734 4.57426 74.527C4.3507 73.299 4.3377 72.0477 4.57946 70.8222C4.75103 69.9577 5.31513 69.3839 6.22757 69.2022C6.6721 69.1139 7.11402 69.0854 7.56115 69.088C10.6936 69.088 13.8287 69.088 16.9611 69.088C20.0936 69.088 23.3768 69.088 26.5847 69.088C27.4815 69.088 27.4165 69.0256 27.4165 69.9499V69.9525Z" fill="white"/>
<path d="M173.283 60.7645C173.278 60.2946 173.244 59.8195 173.169 59.3547C173.052 58.6408 172.855 57.9476 172.452 57.3323C171.799 56.3353 170.832 55.8239 169.701 55.5642C169.067 55.4189 168.425 55.3773 167.775 55.3773C160.884 55.3773 153.992 55.3799 147.103 55.3773C146.427 55.3773 145.759 55.4292 145.104 55.5772C143.42 55.9589 142.258 56.9091 141.777 58.6226C141.551 59.4248 141.504 60.2348 141.504 61.0553C141.504 64.4096 141.504 67.7639 141.504 71.1182C141.504 71.7153 141.512 72.3099 141.522 72.907C141.535 73.73 141.67 74.54 141.889 75.3319C142.156 76.3003 142.58 77.1934 143.259 77.9463C144.103 78.8809 145.177 79.4261 146.386 79.7195C147.236 79.9272 148.102 79.9999 148.975 79.9999C152.682 79.9921 156.389 79.9973 160.096 79.9973C163.951 79.9973 167.809 79.9973 171.664 79.9973C171.864 79.9973 172.062 80.0025 172.262 79.9973C172.595 79.9843 172.662 79.9298 172.665 79.6027C172.673 78.5097 172.67 77.4167 172.665 76.3236C172.665 76.0329 172.592 75.9654 172.324 75.9498C172.15 75.9394 171.976 75.9446 171.802 75.9446C170.234 75.9446 168.667 75.9446 167.099 75.9446C161.453 75.9446 155.804 75.9446 150.158 75.9446C149.583 75.9446 149.014 75.9082 148.458 75.7603C147.21 75.4279 146.466 74.6075 146.134 73.3821C145.843 72.3073 145.941 71.2117 145.936 70.1187C145.936 70.0953 145.947 70.0693 145.952 70.046C145.973 69.9395 146.035 69.8616 146.147 69.8539C146.394 69.8409 146.643 69.8331 146.89 69.8331C153.683 69.8331 160.473 69.8305 167.265 69.8357C167.939 69.8357 168.607 69.7786 169.275 69.7033C169.925 69.6306 170.538 69.4125 171.108 69.1035C171.947 68.6466 172.524 67.9508 172.855 67.0499C173.164 66.201 173.294 65.3208 173.294 64.4174C173.294 63.1997 173.304 61.9821 173.289 60.7645H173.283ZM168.83 64.1292C168.807 64.5861 168.677 65.0171 168.42 65.3884C168.066 65.9024 167.564 66.2062 166.941 66.2996C166.473 66.3671 166.002 66.3853 165.529 66.3853C162.472 66.3853 159.415 66.3853 156.355 66.3853H147.033C146.885 66.3853 146.734 66.3853 146.586 66.3853C145.934 66.3775 145.928 66.3775 145.926 65.7233C145.923 64.4563 145.926 63.1894 145.926 61.925C145.926 61.5771 145.957 61.2344 146.03 60.8917C146.253 59.861 146.929 59.3236 147.925 59.1496C148.315 59.0821 148.715 59.0588 149.113 59.0588C154.632 59.0536 160.151 59.0536 165.669 59.0588C166.09 59.0588 166.517 59.0847 166.933 59.1548C168.027 59.3366 168.685 60.0531 168.817 61.1591C168.823 61.2084 168.828 61.2578 168.83 61.3071C168.88 62.2495 168.877 63.1919 168.83 64.137V64.1292Z" fill="white"/>
<path d="M139.016 64.0591C139.014 62.8622 138.876 61.6835 138.504 60.536C137.61 57.7788 135.723 56.1432 132.897 55.5694C132.114 55.4111 131.322 55.3747 130.521 55.3773C126.913 55.3851 123.307 55.3799 119.699 55.3799C115.818 55.3799 111.937 55.3799 108.058 55.3799C107.159 55.3799 107.224 55.302 107.224 56.2341C107.224 61.6264 107.224 67.0188 107.224 72.4111C107.224 74.6465 107.224 76.8844 107.224 79.1198C107.224 79.3431 107.231 79.5663 107.252 79.787C107.263 79.8909 107.338 79.9713 107.447 79.9765C107.671 79.9895 107.894 79.9947 108.118 79.9947C115.605 79.9947 123.094 79.9947 130.581 79.9947C130.929 79.9947 131.277 79.9947 131.626 79.9687C132.749 79.8857 133.838 79.6572 134.865 79.1743C136.469 78.4214 137.589 77.2168 138.268 75.5863C138.811 74.2804 139.014 72.9148 139.016 71.5103C139.019 69.0257 139.021 66.5411 139.016 64.0565V64.0591ZM134.259 73.0991C133.96 73.9663 133.406 74.6075 132.637 75.0697C132.146 75.3656 131.613 75.5759 131.046 75.6902C130.264 75.8485 129.476 75.942 128.675 75.942C123.279 75.9394 117.879 75.942 112.483 75.942C111.633 75.942 111.653 75.9732 111.653 75.1398C111.653 70.1706 111.653 65.2014 111.653 60.2323C111.653 60.1076 111.651 59.983 111.653 59.8584C111.669 59.482 111.705 59.4378 112.098 59.4326C112.87 59.4248 113.639 59.43 114.411 59.43C116.676 59.43 118.94 59.43 121.201 59.43C124.012 59.43 126.824 59.43 129.634 59.43C130.108 59.43 130.575 59.469 131.043 59.5469C132.692 59.8272 133.695 60.8164 134.178 62.3715C134.459 63.2776 134.587 64.2149 134.589 65.1651C134.594 67.1278 134.594 69.0906 134.594 71.0533C134.594 71.7543 134.485 72.4319 134.254 73.1017L134.259 73.0991Z" fill="white"/>
</g>
<defs>
<clipPath id="clip0_146_298">
<rect width="251" height="80" fill="white"/>
</clipPath>
</defs>
</svg>
