<svg width="382" height="121" viewBox="0 0 382 121" fill="none" xmlns="http://www.w3.org/2000/svg">
<g clip-path="url(#clip0_146_282)">
<path d="M0 70.529V0H53.135V13.7948H15.3944V28.1119H48.6038V41.9106H15.3944V56.7264H53.6411V70.529H0Z" fill="white"/>
<path d="M109.192 24.2832C109.192 30.2205 104.869 34.2494 97.313 34.2494H81.6205V14.0029H97.0188C104.567 14.0029 109.196 17.4271 109.196 24.083V24.2832H109.192ZM121.742 62.8207L115.752 54.0483L109.8 45.3426C118.761 42.0088 124.893 34.8659 124.893 23.4783V23.2741C124.893 8.76459 114.928 0 98.3173 0H66.1162V64.2619C66.1162 69.0054 69.9609 70.529 74.6961 70.529H81.6165V47.9539H93.79L106.289 66.6376L106.505 66.9596C108.027 69.1154 110.534 70.529 113.367 70.529H127.007L121.742 62.8207Z" fill="white"/>
<path d="M160.315 40.9485L169.609 18.2321L178.903 40.9485H160.315ZM176.902 0H162.716L139.86 53.7695L134.846 65.5577L132.731 70.529H142.637C146.2 70.529 149.256 68.3614 150.562 65.2789L150.574 65.2514L154.827 54.8179H184.407L190.798 70.529H206.891L176.902 0Z" fill="white"/>
<path d="M294.484 83.7623C302.067 83.7623 309.65 83.7623 317.23 83.7623C318.395 83.7623 319.552 83.7976 320.702 84.0215C322.703 84.4141 324.488 85.2034 325.912 86.7113C326.406 87.2336 326.822 87.8108 327.151 88.443C327.889 89.8567 328.352 91.3528 328.525 92.9431C328.666 94.2507 328.721 95.5623 328.721 96.8817C328.713 104.472 328.717 112.063 328.721 119.653C328.721 121.118 328.787 120.996 327.383 120.996C325.845 120.996 324.303 121 322.765 120.992C322.2 120.992 322.122 120.898 322.098 120.34C322.087 120.042 322.095 119.739 322.095 119.437C322.095 112.11 322.098 104.782 322.091 97.455C322.091 96.5911 322.036 95.7272 321.969 94.8672C321.894 93.917 321.569 93.0374 321.086 92.2167C320.463 91.1603 319.513 90.5085 318.356 90.1865C317.673 89.998 316.963 89.8881 316.245 89.8881C311.89 89.892 307.536 89.8881 303.181 89.8881C302.993 89.8881 302.804 89.8959 302.62 89.9116C302.455 89.9273 302.338 90.0334 302.33 90.1944C302.306 90.5674 302.294 90.9444 302.294 91.3174C302.294 99.5833 302.294 107.853 302.294 116.119C302.294 117.36 302.294 118.601 302.294 119.838C302.294 120.101 302.291 120.364 302.263 120.623C302.243 120.839 302.098 120.945 301.89 120.973C301.816 120.98 301.741 120.984 301.667 120.984C299.866 120.984 298.061 120.992 296.261 120.984C295.684 120.984 295.637 120.918 295.617 120.321C295.609 120.022 295.617 119.72 295.617 119.417C295.617 110.021 295.617 100.628 295.617 91.231C295.617 89.731 295.747 89.8802 294.311 89.8802C288.607 89.8802 282.898 89.8802 277.194 89.8802C275.747 89.8802 275.833 89.7585 275.833 91.1957C275.833 100.628 275.833 110.06 275.833 119.492C275.833 121.153 275.982 120.98 274.307 120.984C272.804 120.988 271.306 120.992 269.803 120.984C269.234 120.984 269.156 120.89 269.132 120.336C269.12 120.073 269.132 119.81 269.132 119.547C269.132 108.085 269.132 96.6225 269.132 85.1602C269.132 83.6013 269.011 83.7544 270.509 83.7544C278.505 83.7544 286.5 83.7544 294.495 83.7544L294.484 83.7623Z" fill="white"/>
<path d="M82.0257 83.7623C87.5417 83.7623 93.0615 83.7623 98.5774 83.7623C99.9819 83.7623 99.8525 83.6445 99.8525 85.0267C99.8525 86.4168 99.8603 87.8069 99.8525 89.197C99.8485 89.837 99.7975 89.8724 99.1306 89.8881C98.8325 89.8959 98.5304 89.8881 98.2283 89.8881C88.2439 89.8881 78.2595 89.8881 68.2751 89.8881C67.5219 89.8881 66.7804 89.9391 66.0389 90.0844C64.0303 90.4771 62.7906 91.6787 62.2217 93.6224C61.9314 94.6081 61.8647 95.6212 61.8608 96.6343C61.8412 100.428 61.8412 104.225 61.8608 108.018C61.8647 109.027 61.9275 110.04 62.206 111.03C62.7553 112.974 63.9636 114.211 65.9565 114.654C66.7333 114.827 67.514 114.866 68.3065 114.866C78.2517 114.862 88.2007 114.862 98.1459 114.866C98.6638 114.866 99.3032 114.654 99.6759 114.984C100.115 115.369 99.8368 116.048 99.8485 116.598C99.8799 117.839 99.8642 119.08 99.8525 120.317C99.8485 120.918 99.7819 120.976 99.2248 120.996C98.9619 121.004 98.6991 120.996 98.4362 120.996C87.8516 120.996 77.267 120.992 66.6823 121C65.2857 121 63.9047 120.906 62.5513 120.576C60.7662 120.14 59.1813 119.331 57.918 117.957C56.8784 116.826 56.2429 115.479 55.8113 114.022C55.3445 112.459 55.2032 110.849 55.1954 109.231C55.1758 104.649 55.1758 100.062 55.1954 95.4798C55.2032 93.862 55.3484 92.252 55.8192 90.6891C56.2703 89.2009 56.9294 87.8304 58.0161 86.6799C59.4167 85.1995 61.1742 84.4298 63.128 84.0372C64.2735 83.8055 65.4348 83.7544 66.5999 83.7544C71.7432 83.7623 76.8825 83.7544 82.0257 83.7544V83.7623Z" fill="white"/>
<path d="M132.246 83.7898C132.438 83.6091 132.595 83.7584 132.736 83.8605C133.866 84.6654 134.992 85.4744 136.118 86.2833C139.311 88.5804 142.509 90.8737 145.702 93.1748C149.139 95.6487 152.571 98.1304 156.008 100.604C157.409 101.613 158.813 102.611 160.214 103.612C160.457 103.785 160.696 103.97 160.935 104.15C161.159 104.319 161.273 104.543 161.257 104.829C161.249 104.979 161.257 105.128 161.257 105.281C161.257 110.087 161.257 114.89 161.257 119.696C161.257 120.8 161.218 120.812 160.221 120.36C156.742 118.781 153.262 117.207 149.782 115.632C146.439 114.116 143.097 112.597 139.751 111.089C137.255 109.966 134.756 108.854 132.261 107.735C131.865 107.303 131.92 106.758 131.92 106.239C131.912 99.2613 131.912 92.2834 131.92 85.3016C131.92 84.7754 131.904 84.2453 132.249 83.7937L132.246 83.7898Z" fill="#90183A"/>
<path d="M132.245 83.7898C132.257 84.1275 132.285 84.4612 132.285 84.7989C132.285 92.142 132.285 99.4851 132.285 106.832C132.285 107.131 132.269 107.433 132.261 107.731C131.021 108.438 129.683 108.933 128.393 109.526C125.768 110.728 123.128 111.894 120.499 113.084C117.836 114.289 115.176 115.506 112.516 116.712C109.821 117.937 107.122 119.154 104.422 120.376C104.254 120.454 104.077 120.525 103.901 120.584C103.701 120.651 103.504 120.533 103.489 120.336C103.469 120.073 103.465 119.81 103.465 119.547C103.465 114.815 103.465 110.08 103.465 105.348C103.465 105.309 103.469 105.273 103.465 105.234C103.371 104.606 103.614 104.162 104.152 103.824C104.752 103.443 105.321 103.007 105.897 102.595C109.158 100.255 112.418 97.9144 115.678 95.574C119.821 92.5975 123.964 89.625 128.106 86.6485C129.232 85.8395 130.346 85.011 131.476 84.2021C131.712 84.0332 131.912 83.7741 132.249 83.7858L132.245 83.7898Z" fill="#DA1F35"/>
<path d="M326.81 83.9586C327.112 83.7073 327.343 83.7623 327.559 83.7623C329.846 83.7583 332.137 83.7741 334.424 83.7505C334.993 83.7426 335.405 83.9076 335.813 84.3199C340.847 89.3658 345.9 94.3921 350.945 99.4223C351.769 100.243 352.581 101.075 353.401 101.896C353.718 102.214 354.048 102.521 354.381 102.827C354.542 102.972 354.727 102.96 354.887 102.819C355.084 102.646 355.28 102.469 355.464 102.285C358.701 99.0493 361.933 95.8136 365.166 92.574C367.948 89.786 370.729 86.9979 373.507 84.206C373.785 83.9272 374.076 83.7505 374.487 83.7544C376.888 83.7662 379.289 83.7623 381.69 83.7701C381.796 83.7701 381.918 83.7701 382 83.9861C381.796 84.2178 381.573 84.5044 381.322 84.7597C375.543 90.5988 369.76 96.434 363.977 102.273C362.185 104.083 360.403 105.913 358.575 107.692C358.065 108.187 357.889 108.693 357.897 109.381C357.924 112.762 357.908 116.143 357.908 119.524C357.908 121.165 358.002 120.992 356.468 120.996C354.966 121 353.467 121.004 351.965 120.996C351.266 120.992 351.219 120.941 351.215 120.207C351.208 118.479 351.215 116.751 351.215 115.023C351.215 113.033 351.204 111.042 351.223 109.051C351.227 108.525 351.066 108.144 350.686 107.767C348.756 105.878 346.849 103.966 344.938 102.057C342.125 99.2495 339.313 96.434 336.496 93.6303C333.675 90.8226 330.85 88.0228 328.03 85.2191C327.633 84.8225 327.249 84.4141 326.813 83.9665L326.81 83.9586Z" fill="white"/>
<path d="M51.2091 96.4222C51.2131 94.6827 51.0679 92.9667 50.707 91.2742C50.35 89.5936 49.6399 88.07 48.4826 86.782C47.0898 85.2387 45.3009 84.4377 43.304 84.0371C42.1585 83.8055 40.9972 83.7544 39.832 83.7544C28.4196 83.7583 17.0072 83.7544 5.59479 83.7544C5.29271 83.7544 4.99455 83.7466 4.69247 83.7623C4.33547 83.778 4.23346 83.8722 4.22954 84.2453C4.22169 85.9377 4.21777 87.6262 4.22954 89.3187C4.22954 89.7585 4.33939 89.8566 4.7474 89.8763C5.04555 89.8881 5.34764 89.8802 5.64972 89.8841C8.87846 89.8841 12.1072 89.8841 15.3359 89.8841C22.9586 89.8841 30.5773 89.8881 38.2 89.8763C39.0317 89.8763 39.8516 89.9313 40.6559 90.1237C41.9976 90.4457 43.0412 91.1839 43.7002 92.4248C44.0376 93.0609 44.2573 93.7285 44.3868 94.4392C44.5986 95.5937 44.5869 96.756 44.583 97.9223C44.579 99.4891 44.6967 99.3359 43.2138 99.3398C32.9273 99.3398 22.6408 99.3398 12.3544 99.3398C11.7149 99.3398 11.0754 99.3398 10.4399 99.3752C9.15308 99.4537 7.90552 99.7443 6.75997 100.329C4.79447 101.335 3.798 103.058 3.48414 105.171C3.04868 108.085 3.22522 111.018 3.31937 113.947C3.33114 114.321 3.39784 114.694 3.46453 115.067C3.74699 116.696 4.33547 118.173 5.65364 119.264C6.41865 119.897 7.28567 120.325 8.23899 120.58C9.40808 120.894 10.5968 120.996 11.8051 120.992C17.9998 120.984 24.1944 120.988 30.389 120.988C36.8818 120.988 43.3785 120.988 49.8713 120.988C51.2954 120.988 51.1974 121.11 51.1974 119.641C51.1974 111.898 51.1856 104.158 51.2052 96.4144L51.2091 96.4222ZM44.583 105.803C44.583 108.583 44.583 111.364 44.583 114.144C44.583 114.442 44.5751 114.745 44.5633 115.043C44.5516 115.267 44.4025 115.377 44.1985 115.393C43.9356 115.412 43.6728 115.408 43.4099 115.408C33.8022 115.408 24.1944 115.408 14.5866 115.408C13.8726 115.408 13.1665 115.361 12.4681 115.18C11.1696 114.847 10.3457 114.002 10.1103 112.722C9.77294 110.865 9.75332 108.972 10.1182 107.119C10.3771 105.811 11.2284 104.943 12.6054 104.668C13.2763 104.535 13.9432 104.492 14.618 104.496C19.3454 104.496 24.0767 104.496 28.8041 104.496C33.5315 104.496 38.4864 104.496 43.3275 104.496C44.681 104.496 44.583 104.401 44.583 105.799V105.803Z" fill="white"/>
<path d="M264.714 91.9064C264.706 91.1957 264.655 90.4771 264.542 89.7742C264.365 88.6943 264.067 87.6459 263.459 86.7152C262.474 85.2073 261.015 84.4338 259.308 84.0411C258.351 83.8212 257.382 83.7584 256.401 83.7584C246.001 83.7584 235.601 83.7623 225.204 83.7584C224.184 83.7584 223.176 83.8369 222.187 84.0607C219.645 84.638 217.892 86.0752 217.166 88.6668C216.825 89.8802 216.754 91.1054 216.754 92.3462C216.754 97.4196 216.754 102.493 216.754 107.566C216.754 108.47 216.766 109.369 216.781 110.272C216.801 111.517 217.005 112.742 217.335 113.94C217.739 115.404 218.378 116.755 219.402 117.894C220.677 119.308 222.297 120.132 224.122 120.576C225.404 120.89 226.711 121 228.029 121C233.623 120.988 239.218 120.996 244.812 120.996C250.63 120.996 256.452 120.996 262.27 120.996C262.572 120.996 262.87 121.004 263.172 120.996C263.675 120.976 263.777 120.894 263.781 120.399C263.792 118.746 263.788 117.093 263.781 115.44C263.781 115 263.671 114.898 263.267 114.874C263.004 114.859 262.741 114.866 262.478 114.866C260.112 114.866 257.747 114.866 255.381 114.866C246.86 114.866 238.335 114.866 229.814 114.866C228.947 114.866 228.088 114.811 227.248 114.588C225.365 114.085 224.243 112.844 223.741 110.991C223.302 109.365 223.451 107.708 223.443 106.055C223.443 106.019 223.459 105.98 223.466 105.945C223.498 105.784 223.592 105.666 223.761 105.654C224.133 105.634 224.51 105.623 224.883 105.623C235.134 105.623 245.381 105.619 255.632 105.627C256.648 105.627 257.657 105.54 258.665 105.426C259.646 105.316 260.571 104.987 261.431 104.519C262.698 103.828 263.569 102.776 264.067 101.413C264.534 100.129 264.73 98.7979 264.73 97.4314C264.73 95.5898 264.746 93.7481 264.722 91.9064H264.714ZM257.998 96.9955C257.963 97.6867 257.766 98.3385 257.378 98.9C256.844 99.6775 256.087 100.137 255.146 100.278C254.44 100.38 253.729 100.408 253.015 100.408C248.402 100.408 243.788 100.408 239.171 100.408H225.102C224.879 100.408 224.651 100.408 224.428 100.408C223.443 100.396 223.435 100.396 223.431 99.4066C223.427 97.4903 223.431 95.5741 223.431 93.6617C223.431 93.1355 223.478 92.6172 223.588 92.0988C223.925 90.5399 224.945 89.7271 226.448 89.464C227.036 89.3619 227.641 89.3265 228.241 89.3265C236.57 89.3187 244.898 89.3187 253.227 89.3265C253.863 89.3265 254.506 89.3658 255.134 89.4718C256.786 89.7467 257.778 90.8305 257.978 92.5033C257.986 92.5779 257.994 92.6525 257.998 92.7271C258.072 94.1526 258.068 95.578 257.998 97.0073V96.9955Z" fill="white"/>
<path d="M212.999 96.8895C212.995 95.0793 212.787 93.2965 212.226 91.5609C210.877 87.3906 208.029 84.9168 203.764 84.0489C202.583 83.8094 201.387 83.7544 200.178 83.7584C194.733 83.7701 189.292 83.7623 183.846 83.7623C177.989 83.7623 172.132 83.7623 166.278 83.7623C164.921 83.7623 165.019 83.6445 165.019 85.0542C165.019 93.2101 165.019 101.366 165.019 109.522C165.019 112.903 165.019 116.288 165.019 119.669C165.019 120.007 165.031 120.344 165.062 120.678C165.078 120.835 165.192 120.957 165.357 120.965C165.694 120.984 166.031 120.992 166.369 120.992C177.667 120.992 188.97 120.992 200.269 120.992C200.794 120.992 201.32 120.992 201.846 120.953C203.54 120.827 205.184 120.482 206.734 119.751C209.154 118.613 210.845 116.79 211.869 114.324C212.689 112.349 212.995 110.284 212.999 108.159C213.003 104.401 213.007 100.644 212.999 96.8856V96.8895ZM205.824 110.563C205.373 111.874 204.537 112.844 203.376 113.543C202.634 113.991 201.83 114.309 200.975 114.482C199.794 114.721 198.605 114.862 197.397 114.862C189.252 114.859 181.104 114.862 172.96 114.862C171.677 114.862 171.708 114.91 171.708 113.649C171.708 106.133 171.708 98.6173 171.708 91.1014C171.708 90.913 171.704 90.7245 171.708 90.536C171.732 89.9666 171.787 89.8998 172.379 89.892C173.544 89.8802 174.705 89.8881 175.871 89.8881C179.288 89.8881 182.705 89.8881 186.118 89.8881C190.359 89.8881 194.604 89.8881 198.844 89.8881C199.558 89.8881 200.265 89.947 200.971 90.0648C203.458 90.4889 204.972 91.985 205.702 94.3371C206.126 95.7076 206.318 97.1251 206.322 98.5623C206.33 101.531 206.33 104.5 206.33 107.468C206.33 108.529 206.165 109.553 205.816 110.567L205.824 110.563Z" fill="white"/>
</g>
<defs>
<clipPath id="clip0_146_282">
<rect width="382" height="121" fill="white"/>
</clipPath>
</defs>
</svg>
