<svg width="40" height="40" viewBox="0 0 40 40" fill="none" xmlns="http://www.w3.org/2000/svg">
<g clip-path="url(#clip0_2020_355)">
<path d="M20 40C31.0457 40 40 31.0457 40 20C40 8.95431 31.0457 0 20 0C8.95431 0 0 8.95431 0 20C0 31.0457 8.95431 40 20 40Z" fill="url(#paint0_linear_2020_355)"/>
<path d="M30.7113 17.0999C30.7113 14.446 28.5636 12.2982 25.9097 12.2982H13.6251C10.9712 12.2982 8.82349 14.446 8.82349 17.0999V22.8181C8.82349 25.472 10.9712 27.6197 13.6251 27.6197H25.9097C28.5636 27.6197 30.7113 25.472 30.7113 22.8181V17.0999ZM23.4883 20.383L17.9753 23.1053C17.7565 23.2284 17.0314 23.0643 17.0314 22.8181V17.223C17.0314 16.9767 17.7701 16.8126 17.989 16.9357L23.2558 19.8085C23.4746 19.9316 23.7072 20.2599 23.4883 20.3694V20.383Z" fill="white"/>
</g>
<defs>
<linearGradient id="paint0_linear_2020_355" x1="34.145" y1="5.85499" x2="5.85499" y2="34.145" gradientUnits="userSpaceOnUse">
<stop stop-color="#FF0000"/>
<stop offset="1" stop-color="#850000"/>
</linearGradient>
<clipPath id="clip0_2020_355">
<rect width="40" height="40" fill="white"/>
</clipPath>
</defs>
</svg>
