<svg width="40" height="40" viewBox="0 0 40 40" fill="none" xmlns="http://www.w3.org/2000/svg">
<g clip-path="url(#clip0_2020_344)">
<path d="M40 20C40 8.96033 31.0534 0 20 0C8.94665 0 0 8.96033 0 20C0 29.9863 7.31874 38.2627 16.881 39.7538V25.7729H11.8057V19.9863H16.881V15.5814C16.881 10.5746 19.8632 7.79754 24.4323 7.79754C26.6211 7.79754 28.9056 8.19425 28.9056 8.19425V13.119H26.3885C23.8988 13.119 23.1327 14.6648 23.1327 16.238V19.9863H28.6867L27.7975 25.7729H23.1327V39.7538C32.6949 38.249 40.0137 29.9726 40.0137 20H40Z" fill="url(#paint0_linear_2020_344)"/>
<path d="M27.7838 25.7866L28.673 20H23.1189V16.2517C23.1189 14.6648 23.8987 13.1327 26.3748 13.1327H28.8919V8.20794C28.8919 8.20794 26.6073 7.81122 24.4185 7.81122C19.8494 7.81122 16.8672 10.5746 16.8672 15.5951V20H11.792V25.7866H16.8672V39.7674C17.8795 39.9316 18.9329 40.0137 19.9862 40.0137C21.0396 40.0137 22.0929 39.9316 23.1053 39.7674V25.7866H27.7701H27.7838Z" fill="white"/>
</g>
<defs>
<linearGradient id="paint0_linear_2020_344" x1="5.85499" y1="5.85499" x2="34.145" y2="34.145" gradientUnits="userSpaceOnUse">
<stop stop-color="#4676ED"/>
<stop offset="0.19" stop-color="#436DE4"/>
<stop offset="0.49" stop-color="#3B54CD"/>
<stop offset="0.87" stop-color="#2F2DA8"/>
<stop offset="1" stop-color="#2B1E99"/>
</linearGradient>
<clipPath id="clip0_2020_344">
<rect width="40" height="40" fill="white"/>
</clipPath>
</defs>
</svg>
