<svg width="40" height="40" viewBox="0 0 40 40" fill="none" xmlns="http://www.w3.org/2000/svg">
<g clip-path="url(#clip0_2076_434)">
<path d="M20 40C31.0457 40 40 31.0457 40 20C40 8.95431 31.0457 0 20 0C8.95431 0 0 8.95431 0 20C0 31.0457 8.95431 40 20 40Z" fill="url(#paint0_linear_2076_434)"/>
<path d="M11.6144 16.279H15.4858V28.7277H11.6144V16.279ZM13.557 10.0957C14.8018 10.0957 15.8005 11.0943 15.8005 12.3392C15.8005 13.5841 14.8018 14.5827 13.557 14.5827C12.3121 14.5827 11.3135 13.5704 11.3135 12.3392C11.3135 11.108 12.3121 10.0957 13.557 10.0957Z" fill="white"/>
<path d="M17.9204 16.2791H21.6277V17.9754H21.6824C22.2022 16.9905 23.4608 15.9645 25.3486 15.9645C29.261 15.9645 29.9861 18.5363 29.9861 21.8879V28.7141H26.1147V22.6676C26.1147 21.2176 26.0873 19.3708 24.1037 19.3708C22.1201 19.3708 21.7781 20.944 21.7781 22.5719V28.7278H17.9067V16.2791H17.9204Z" fill="white"/>
</g>
<defs>
<linearGradient id="paint0_linear_2076_434" x1="34.145" y1="5.85499" x2="5.85499" y2="34.145" gradientUnits="userSpaceOnUse">
<stop stop-color="#007AB5"/>
<stop offset="1" stop-color="#0046E5"/>
</linearGradient>
<clipPath id="clip0_2076_434">
<rect width="40" height="40" fill="white"/>
</clipPath>
</defs>
</svg>
