<svg width="40" height="40" viewBox="0 0 40 40" fill="none" xmlns="http://www.w3.org/2000/svg">
<g clip-path="url(#clip0_2076_430)">
<path d="M20 40C31.0457 40 40 31.0457 40 20C40 8.95431 31.0457 0 20 0C8.95431 0 0 8.95431 0 20C0 31.0457 8.95431 40 20 40Z" fill="url(#paint0_linear_2076_430)"/>
<path d="M31.0534 13.1464C30.3558 13.461 29.5897 13.6526 28.851 13.7757C29.2067 13.721 29.7265 13.078 29.9317 12.8181C30.2463 12.4214 30.5199 11.9699 30.6704 11.4775C30.6841 11.4364 30.6978 11.3954 30.6704 11.368C30.6157 11.3543 30.5883 11.368 30.5473 11.368C29.7128 11.8195 28.851 12.1341 27.9344 12.3667C27.8524 12.3803 27.7976 12.3667 27.7566 12.3256C27.6745 12.2435 27.6061 12.1615 27.524 12.0931C27.141 11.7647 26.7306 11.5048 26.2518 11.3133C25.6362 11.0671 24.9659 10.9576 24.3093 10.9987C23.6663 11.0397 23.037 11.2175 22.4625 11.5185C21.8879 11.8195 21.3818 12.2299 20.9714 12.736C20.5473 13.2558 20.2463 13.8714 20.0822 14.5144C19.9317 15.1437 19.9454 15.7593 20.0411 16.3885C20.0548 16.498 20.0411 16.5117 19.9454 16.498C16.3476 15.9645 13.379 14.6786 10.9577 11.9289C10.8482 11.8058 10.7935 11.8058 10.7114 11.9289C9.6581 13.5158 10.1643 16.0602 11.4912 17.3188C11.669 17.4829 11.8469 17.6471 12.0384 17.8113C11.97 17.8249 11.0945 17.7292 10.3011 17.3188C10.1916 17.2504 10.1369 17.2914 10.1369 17.4145C10.1369 17.5924 10.1369 17.7428 10.1643 17.9344C10.3694 19.5349 11.4775 21.026 13.0097 21.6143C13.1875 21.6963 13.3927 21.7511 13.5842 21.7921C13.2422 21.8742 12.8729 21.9289 11.8879 21.8468C11.7648 21.8195 11.7101 21.8879 11.7648 21.9973C12.5172 24.0356 14.1314 24.6375 15.3353 24.9932C15.4994 25.0206 15.6636 25.0206 15.8277 25.0616C15.8277 25.0753 15.814 25.0753 15.8004 25.089C15.4037 25.7045 14.0083 26.156 13.3653 26.3885C12.1889 26.7989 10.903 26.9905 9.6581 26.8673C9.4529 26.84 9.41186 26.84 9.35714 26.8673C9.30242 26.8947 9.35714 26.9494 9.41186 27.0041C9.6581 27.1683 9.91801 27.3188 10.1779 27.4556C10.9714 27.8796 11.7922 28.208 12.654 28.4405C17.1136 29.6717 22.1205 28.7688 25.472 25.4446C28.0986 22.8318 29.0151 19.234 29.0151 15.6361C29.0151 15.4993 29.1793 15.4173 29.2751 15.3489C29.9591 14.829 30.5062 14.2271 31.0124 13.5294C31.1218 13.379 31.1218 13.2422 31.1218 13.1874C31.1218 13.1054 31.1218 13.1327 31.0261 13.1738L31.0534 13.1464Z" fill="white"/>
</g>
<defs>
<linearGradient id="paint0_linear_2076_430" x1="34.145" y1="5.85499" x2="5.85499" y2="34.145" gradientUnits="userSpaceOnUse">
<stop stop-color="#33CCFF"/>
<stop offset="1" stop-color="#337FFF"/>
</linearGradient>
<clipPath id="clip0_2076_430">
<rect width="40" height="40" fill="white"/>
</clipPath>
</defs>
</svg>
